<?xml version="1.0" encoding="utf-8"?>
<svg height="128px" viewBox="0 0 128 128" width="128px" xmlns="http://www.w3.org/2000/svg">
  <linearGradient id="a" gradientTransform="matrix(0.45451 0 0 0.455522 -1210.292114 616.172607)" gradientUnits="userSpaceOnUse" x1="2689.251953" x2="2918.069824" y1="-1106.802979" y2="-1106.802979">
    <stop offset="0" stop-color="#62a0ea"/>
    <stop offset="0.0577" stop-color="#afd4ff"/>
    <stop offset="0.1222" stop-color="#62a0ea"/>
    <stop offset="0.8733" stop-color="#62a0ea"/>
    <stop offset="0.956" stop-color="#c0d5ea"/>
    <stop offset="1" stop-color="#62a0ea"/>
  </linearGradient>
  <path d="m 21.976562 12 c -5.527343 0 -9.976562 4.460938 -9.976562 10 v 86.03125 c 0 5.542969 4.449219 10 9.976562 10 h 84.042969 c 5.53125 0 9.980469 -4.457031 9.980469 -10 v -72.085938 c 0 -6.628906 -5.359375 -12 -11.972656 -12 h -46.027344 c -2.453125 0 -4.695312 -1.386718 -5.796875 -3.582031 l -1.503906 -2.992187 c -1.65625 -3.292969 -5.019531 -5.371094 -8.699219 -5.371094 z m 0 0" fill="#438de6"/>
  <path d="m 65.976562 36 c -2.746093 0 -5.226562 1.101562 -7.027343 2.890625 c -2.273438 2.253906 -5.382813 5.109375 -8.632813 5.109375 h -28.339844 c -5.527343 0 -9.976562 4.460938 -9.976562 10 v 54.03125 c 0 5.542969 4.449219 10 9.976562 10 h 84.042969 c 5.53125 0 9.980469 -4.457031 9.980469 -10 v -62.03125 c 0 -5.539062 -4.449219 -10 -9.980469 -10 z m 0 0" fill="url(#a)"/>
  <path d="m 65.976562 32 c -2.746093 0 -5.226562 1.101562 -7.027343 2.890625 c -2.273438 2.253906 -5.382813 5.109375 -8.632813 5.109375 h -28.339844 c -5.527343 0 -9.976562 4.460938 -9.976562 10 v 55.976562 c 0 5.539063 4.449219 10 9.976562 10 h 84.042969 c 5.53125 0 9.980469 -4.460937 9.980469 -10 v -63.976562 c 0 -5.539062 -4.449219 -10 -9.980469 -10 z m 0 0" fill="#a4caee"/>
  <path d="M 44.36 87.177 C 44.583 83.991 45.544 81.056 47.242 78.371 C 48.941 75.686 51.19 73.556 53.985 71.982 L 50.677 66.284 C 50.549 65.999 50.525 65.718 50.603 65.44 C 50.683 65.163 50.865 64.95 51.152 64.802 C 51.401 64.635 51.671 64.605 51.964 64.711 C 52.256 64.818 52.485 64.991 52.652 65.232 L 55.985 70.954 C 58.516 69.871 61.184 69.329 63.988 69.329 C 66.793 69.329 69.476 69.871 72.042 70.954 L 75.348 65.232 C 75.515 64.991 75.747 64.818 76.048 64.711 C 76.35 64.605 76.636 64.635 76.909 64.802 C 77.156 64.95 77.33 65.167 77.437 65.454 C 77.545 65.741 77.515 66.019 77.348 66.287 L 73.987 71.982 C 76.782 73.556 79.031 75.685 80.732 78.369 C 82.434 81.053 83.403 83.989 83.64 87.177 L 44.36 87.177 Z M 56.638 81.612 C 57.065 81.189 57.277 80.665 57.277 80.042 C 57.277 79.419 57.065 78.887 56.638 78.448 C 56.212 78.008 55.688 77.788 55.065 77.788 C 54.441 77.788 53.919 78.008 53.496 78.448 C 53.073 78.887 52.86 79.419 52.86 80.042 C 52.86 80.665 53.073 81.189 53.496 81.612 C 53.919 82.035 54.441 82.246 55.065 82.246 C 55.688 82.246 56.212 82.035 56.638 81.612 Z M 74.49 81.612 C 74.922 81.189 75.14 80.665 75.14 80.042 C 75.14 79.419 74.922 78.887 74.49 78.448 C 74.059 78.008 73.531 77.788 72.907 77.788 C 72.284 77.788 71.757 78.008 71.326 78.448 C 70.895 78.887 70.681 79.419 70.681 80.042 C 70.681 80.665 70.895 81.189 71.326 81.612 C 71.757 82.035 72.284 82.246 72.907 82.246 C 73.531 82.246 74.059 82.035 74.49 81.612 Z" style="stroke-width: 0.042px; fill: rgb(67, 141, 230);"/>
</svg>