<?xml version="1.0" encoding="utf-8"?>
<svg height="128px" viewBox="0 0 128 128" width="128px" xmlns="http://www.w3.org/2000/svg">
  <linearGradient id="a" gradientTransform="matrix(0.45451 0 0 0.455522 -1210.292114 616.172607)" gradientUnits="userSpaceOnUse" x1="2689.251953" x2="2918.069824" y1="-1106.802979" y2="-1106.802979">
    <stop offset="0" stop-color="#62a0ea"/>
    <stop offset="0.0577" stop-color="#afd4ff"/>
    <stop offset="0.1222" stop-color="#62a0ea"/>
    <stop offset="0.8733" stop-color="#62a0ea"/>
    <stop offset="0.956" stop-color="#c0d5ea"/>
    <stop offset="1" stop-color="#62a0ea"/>
  </linearGradient>
  <path d="m 21.976562 12 c -5.527343 0 -9.976562 4.460938 -9.976562 10 v 86.03125 c 0 5.542969 4.449219 10 9.976562 10 h 84.042969 c 5.53125 0 9.980469 -4.457031 9.980469 -10 v -72.085938 c 0 -6.628906 -5.359375 -12 -11.972656 -12 h -46.027344 c -2.453125 0 -4.695312 -1.386718 -5.796875 -3.582031 l -1.503906 -2.992187 c -1.65625 -3.292969 -5.019531 -5.371094 -8.699219 -5.371094 z m 0 0" fill="#438de6"/>
  <path d="m 65.976562 36 c -2.746093 0 -5.226562 1.101562 -7.027343 2.890625 c -2.273438 2.253906 -5.382813 5.109375 -8.632813 5.109375 h -28.339844 c -5.527343 0 -9.976562 4.460938 -9.976562 10 v 54.03125 c 0 5.542969 4.449219 10 9.976562 10 h 84.042969 c 5.53125 0 9.980469 -4.457031 9.980469 -10 v -62.03125 c 0 -5.539062 -4.449219 -10 -9.980469 -10 z m 0 0" fill="url(#a)"/>
  <path d="m 65.976562 32 c -2.746093 0 -5.226562 1.101562 -7.027343 2.890625 c -2.273438 2.253906 -5.382813 5.109375 -8.632813 5.109375 h -28.339844 c -5.527343 0 -9.976562 4.460938 -9.976562 10 v 55.976562 c 0 5.539063 4.449219 10 9.976562 10 h 84.042969 c 5.53125 0 9.980469 -4.460937 9.980469 -10 v -63.976562 c 0 -5.539062 -4.449219 -10 -9.980469 -10 z m 0 0" fill="#a4caee"/>
  <path d="M 57.188 93.314 L 57.188 89.703 L 51.91 89.703 L 51.91 85.342 L 55.521 85.342 L 55.521 68.953 L 51.91 68.953 L 51.91 64.564 L 57.188 64.564 L 57.188 60.952 L 61.549 60.952 L 61.549 64.564 L 64.882 64.564 L 64.882 60.952 L 69.271 60.952 L 69.271 64.939 C 70.876 65.426 72.135 66.325 73.051 67.637 C 73.965 68.949 74.424 70.396 74.424 71.976 C 74.424 72.701 74.299 73.453 74.049 74.23 C 73.799 75.008 73.438 75.703 72.965 76.314 C 73.975 76.971 74.747 77.837 75.285 78.911 C 75.822 79.985 76.09 81.124 76.09 82.328 C 76.09 84.243 75.469 85.903 74.23 87.306 C 72.988 88.709 71.428 89.49 69.549 89.647 L 69.271 89.647 L 69.271 93.314 L 64.882 93.314 L 64.882 89.703 L 61.549 89.703 L 61.549 93.314 L 57.188 93.314 Z M 59.882 74.967 L 67.063 74.967 C 67.902 74.967 68.613 74.672 69.193 74.084 C 69.773 73.495 70.063 72.789 70.063 71.967 C 70.063 71.134 69.773 70.423 69.193 69.835 C 68.613 69.247 67.904 68.953 67.063 68.953 L 59.882 68.953 L 59.882 74.967 Z M 59.882 85.342 L 68.73 85.342 C 69.57 85.342 70.279 85.043 70.859 84.446 C 71.439 83.848 71.73 83.142 71.73 82.327 C 71.73 81.494 71.439 80.786 70.861 80.203 C 70.281 79.619 69.57 79.328 68.73 79.328 L 59.882 79.328 L 59.882 85.342 Z" style="stroke-width: 0.042px; fill: rgb(67, 141, 230);"/>
</svg>