<?xml version="1.0" encoding="utf-8"?>
<svg height="128px" viewBox="0 0 128 128" width="128px" xmlns="http://www.w3.org/2000/svg">
  <linearGradient id="a" gradientTransform="matrix(0.45451 0 0 0.455522 -1210.292114 616.172607)" gradientUnits="userSpaceOnUse" x1="2689.251953" x2="2918.069824" y1="-1106.802979" y2="-1106.802979">
    <stop offset="0" stop-color="#62a0ea"/>
    <stop offset="0.0577" stop-color="#afd4ff"/>
    <stop offset="0.1222" stop-color="#62a0ea"/>
    <stop offset="0.8733" stop-color="#62a0ea"/>
    <stop offset="0.956" stop-color="#c0d5ea"/>
    <stop offset="1" stop-color="#62a0ea"/>
  </linearGradient>
  <path d="m 21.976562 12 c -5.527343 0 -9.976562 4.460938 -9.976562 10 v 86.03125 c 0 5.542969 4.449219 10 9.976562 10 h 84.042969 c 5.53125 0 9.980469 -4.457031 9.980469 -10 v -72.085938 c 0 -6.628906 -5.359375 -12 -11.972656 -12 h -46.027344 c -2.453125 0 -4.695312 -1.386718 -5.796875 -3.582031 l -1.503906 -2.992187 c -1.65625 -3.292969 -5.019531 -5.371094 -8.699219 -5.371094 z m 0 0" fill="#438de6"/>
  <path d="m 65.976562 36 c -2.746093 0 -5.226562 1.101562 -7.027343 2.890625 c -2.273438 2.253906 -5.382813 5.109375 -8.632813 5.109375 h -28.339844 c -5.527343 0 -9.976562 4.460938 -9.976562 10 v 54.03125 c 0 5.542969 4.449219 10 9.976562 10 h 84.042969 c 5.53125 0 9.980469 -4.457031 9.980469 -10 v -62.03125 c 0 -5.539062 -4.449219 -10 -9.980469 -10 z m 0 0" fill="url(#a)"/>
  <path d="m 65.976562 32 c -2.746093 0 -5.226562 1.101562 -7.027343 2.890625 c -2.273438 2.253906 -5.382813 5.109375 -8.632813 5.109375 h -28.339844 c -5.527343 0 -9.976562 4.460938 -9.976562 10 v 55.976562 c 0 5.539063 4.449219 10 9.976562 10 h 84.042969 c 5.53125 0 9.980469 -4.460937 9.980469 -10 v -63.976562 c 0 -5.539062 -4.449219 -10 -9.980469 -10 z m 0 0" fill="#a4caee"/>
  <path d="M 55.653 94.981 C 53.935 94.981 52.477 94.382 51.281 93.186 C 50.084 91.99 49.486 90.532 49.486 88.814 L 49.486 65.48 C 49.486 63.755 50.084 62.291 51.281 61.089 C 52.477 59.887 53.935 59.286 55.653 59.286 L 78.514 59.286 L 78.514 86.647 C 77.954 86.647 77.499 86.863 77.15 87.295 C 76.8 87.727 76.625 88.233 76.625 88.812 C 76.625 89.392 76.8 89.894 77.15 90.317 C 77.499 90.741 77.954 90.953 78.514 90.953 L 78.514 94.981 L 55.653 94.981 Z M 53.514 83.078 C 53.823 82.932 54.156 82.817 54.512 82.733 C 54.868 82.648 55.249 82.606 55.653 82.606 L 57.403 82.606 L 57.403 63.314 L 55.653 63.314 C 55.034 63.314 54.523 63.52 54.119 63.933 C 53.716 64.346 53.514 64.862 53.514 65.48 L 53.514 83.078 Z M 61.431 82.606 L 74.486 82.606 L 74.486 63.314 L 61.431 63.314 L 61.431 82.606 Z M 53.514 83.078 L 53.514 63.314 L 53.514 83.078 Z M 55.64 90.953 L 73.07 90.953 C 72.92 90.642 72.804 90.303 72.721 89.935 C 72.639 89.567 72.598 89.193 72.598 88.813 C 72.598 88.415 72.64 88.038 72.725 87.679 C 72.809 87.321 72.934 86.977 73.098 86.647 L 55.642 86.647 C 55.033 86.647 54.526 86.854 54.121 87.266 C 53.716 87.679 53.514 88.194 53.514 88.812 C 53.514 89.43 53.716 89.941 54.121 90.346 C 54.526 90.75 55.032 90.953 55.64 90.953 Z" style="stroke-width: 0.042px; fill: rgb(67, 141, 230);"/>
</svg>