<?xml version="1.0" encoding="utf-8"?>
<svg height="128px" viewBox="0 0 128 128" width="128px" xmlns="http://www.w3.org/2000/svg">
  <linearGradient id="a" gradientTransform="matrix(0.45451 0 0 0.455522 -1210.292114 616.172607)" gradientUnits="userSpaceOnUse" x1="2689.251953" x2="2918.069824" y1="-1106.802979" y2="-1106.802979">
    <stop offset="0" stop-color="#62a0ea"/>
    <stop offset="0.0577" stop-color="#afd4ff"/>
    <stop offset="0.1222" stop-color="#62a0ea"/>
    <stop offset="0.8733" stop-color="#62a0ea"/>
    <stop offset="0.956" stop-color="#c0d5ea"/>
    <stop offset="1" stop-color="#62a0ea"/>
  </linearGradient>
  <path d="m 21.976562 12 c -5.527343 0 -9.976562 4.460938 -9.976562 10 v 86.03125 c 0 5.542969 4.449219 10 9.976562 10 h 84.042969 c 5.53125 0 9.980469 -4.457031 9.980469 -10 v -72.085938 c 0 -6.628906 -5.359375 -12 -11.972656 -12 h -46.027344 c -2.453125 0 -4.695312 -1.386718 -5.796875 -3.582031 l -1.503906 -2.992187 c -1.65625 -3.292969 -5.019531 -5.371094 -8.699219 -5.371094 z m 0 0" fill="#438de6"/>
  <path d="m 65.976562 36 c -2.746093 0 -5.226562 1.101562 -7.027343 2.890625 c -2.273438 2.253906 -5.382813 5.109375 -8.632813 5.109375 h -28.339844 c -5.527343 0 -9.976562 4.460938 -9.976562 10 v 54.03125 c 0 5.542969 4.449219 10 9.976562 10 h 84.042969 c 5.53125 0 9.980469 -4.457031 9.980469 -10 v -62.03125 c 0 -5.539062 -4.449219 -10 -9.980469 -10 z m 0 0" fill="url(#a)"/>
  <path d="m 65.976562 32 c -2.746093 0 -5.226562 1.101562 -7.027343 2.890625 c -2.273438 2.253906 -5.382813 5.109375 -8.632813 5.109375 h -28.339844 c -5.527343 0 -9.976562 4.460938 -9.976562 10 v 55.976562 c 0 5.539063 4.449219 10 9.976562 10 h 84.042969 c 5.53125 0 9.980469 -4.460937 9.980469 -10 v -63.976562 c 0 -5.539062 -4.449219 -10 -9.980469 -10 z m 0 0" fill="#a4caee"/>
  <path d="M 68.389 91.993 L 68.389 87.632 L 71.764 87.632 C 72.444 87.632 73.022 87.393 73.497 86.916 C 73.97 86.439 74.208 85.858 74.208 85.174 L 74.208 82.382 C 74.208 81.308 74.524 80.331 75.152 79.451 C 75.783 78.572 76.611 77.957 77.639 77.608 L 77.639 77.225 C 76.583 76.922 75.747 76.326 75.133 75.437 C 74.516 74.548 74.208 73.567 74.208 72.493 L 74.208 69.659 C 74.208 68.975 73.972 68.396 73.499 67.924 C 73.027 67.451 72.449 67.215 71.764 67.215 L 68.389 67.215 L 68.389 62.854 L 72.972 62.854 C 74.528 62.854 75.849 63.401 76.938 64.495 C 78.025 65.589 78.569 66.936 78.569 68.534 L 78.569 71.326 C 78.569 72.034 78.8 72.621 79.26 73.086 C 79.721 73.552 80.316 73.784 81.041 73.784 L 81.902 73.784 L 81.902 81.062 L 81.041 81.062 C 80.316 81.062 79.721 81.299 79.26 81.771 C 78.8 82.244 78.569 82.822 78.569 83.507 L 78.569 86.34 C 78.569 87.948 78.024 89.292 76.936 90.372 C 75.845 91.453 74.525 91.993 72.972 91.993 L 68.389 91.993 Z M 55.027 91.993 C 53.445 91.993 52.115 91.453 51.041 90.372 C 49.968 89.292 49.43 87.948 49.43 86.34 L 49.43 83.507 C 49.43 82.822 49.195 82.244 48.721 81.771 C 48.249 81.299 47.666 81.062 46.973 81.062 L 46.098 81.062 L 46.098 73.784 L 46.973 73.784 C 47.666 73.784 48.249 73.552 48.721 73.086 C 49.195 72.621 49.43 72.034 49.43 71.326 L 49.43 68.534 C 49.43 66.936 49.969 65.589 51.044 64.495 C 52.12 63.401 53.448 62.854 55.027 62.854 L 59.612 62.854 L 59.612 67.215 L 56.249 67.215 C 55.57 67.215 54.99 67.451 54.51 67.924 C 54.031 68.396 53.791 68.975 53.791 69.659 L 53.791 72.493 C 53.791 73.567 53.478 74.548 52.853 75.437 C 52.228 76.326 51.412 76.922 50.402 77.225 L 50.402 77.608 C 51.412 77.957 52.228 78.572 52.853 79.451 C 53.478 80.331 53.791 81.308 53.791 82.382 L 53.791 85.174 C 53.791 85.858 54.031 86.439 54.508 86.916 C 54.984 87.393 55.566 87.632 56.249 87.632 L 59.612 87.632 L 59.612 91.993 L 55.027 91.993 Z" style="stroke-width: 0.042px; fill: rgb(67, 141, 230);"/>
</svg>