<?xml version="1.0" encoding="utf-8"?>
<svg height="128px" viewBox="0 0 128 128" width="128px" xmlns="http://www.w3.org/2000/svg">
  <linearGradient id="a" gradientTransform="matrix(0.45451 0 0 0.455522 -1210.292114 616.172607)" gradientUnits="userSpaceOnUse" x1="2689.251953" x2="2918.069824" y1="-1106.802979" y2="-1106.802979">
    <stop offset="0" stop-color="#62a0ea"/>
    <stop offset="0.0577" stop-color="#afd4ff"/>
    <stop offset="0.1222" stop-color="#62a0ea"/>
    <stop offset="0.8733" stop-color="#62a0ea"/>
    <stop offset="0.956" stop-color="#c0d5ea"/>
    <stop offset="1" stop-color="#62a0ea"/>
  </linearGradient>
  <path d="m 21.976562 12 c -5.527343 0 -9.976562 4.460938 -9.976562 10 v 86.03125 c 0 5.542969 4.449219 10 9.976562 10 h 84.042969 c 5.53125 0 9.980469 -4.457031 9.980469 -10 v -72.085938 c 0 -6.628906 -5.359375 -12 -11.972656 -12 h -46.027344 c -2.453125 0 -4.695312 -1.386718 -5.796875 -3.582031 l -1.503906 -2.992187 c -1.65625 -3.292969 -5.019531 -5.371094 -8.699219 -5.371094 z m 0 0" fill="#438de6"/>
  <path d="m 65.976562 36 c -2.746093 0 -5.226562 1.101562 -7.027343 2.890625 c -2.273438 2.253906 -5.382813 5.109375 -8.632813 5.109375 h -28.339844 c -5.527343 0 -9.976562 4.460938 -9.976562 10 v 54.03125 c 0 5.542969 4.449219 10 9.976562 10 h 84.042969 c 5.53125 0 9.980469 -4.457031 9.980469 -10 v -62.03125 c 0 -5.539062 -4.449219 -10 -9.980469 -10 z m 0 0" fill="url(#a)"/>
  <path d="m 65.976562 32 c -2.746093 0 -5.226562 1.101562 -7.027343 2.890625 c -2.273438 2.253906 -5.382813 5.109375 -8.632813 5.109375 h -28.339844 c -5.527343 0 -9.976562 4.460938 -9.976562 10 v 55.976562 c 0 5.539063 4.449219 10 9.976562 10 h 84.042969 c 5.53125 0 9.980469 -4.460937 9.980469 -10 v -63.976562 c 0 -5.539062 -4.449219 -10 -9.980469 -10 z m 0 0" fill="#a4caee"/>
  <path d="M 60.124 86.717 C 56.755 86.717 53.861 85.558 51.445 83.241 C 49.027 80.924 47.82 78.101 47.82 74.772 L 47.82 64.842 C 47.82 63.758 48.193 62.839 48.941 62.085 C 49.689 61.33 50.611 60.952 51.708 60.952 L 73.723 60.952 C 75.51 60.952 77.033 61.58 78.292 62.836 C 79.551 64.092 80.18 65.615 80.18 67.405 C 80.18 69.307 79.564 70.95 78.333 72.335 C 77.102 73.719 75.564 74.411 73.723 74.411 L 72.708 74.411 L 72.708 74.772 C 72.587 78.133 71.303 80.964 68.854 83.265 C 66.404 85.566 63.495 86.717 60.124 86.717 Z M 52.18 70.022 L 68.348 70.022 L 68.348 65.342 L 52.18 65.342 L 52.18 70.022 Z M 60.111 82.328 C 62.305 82.328 64.197 81.608 65.785 80.168 C 67.372 78.728 68.227 76.93 68.348 74.772 L 68.348 74.411 L 52.18 74.411 L 52.18 74.772 C 52.152 76.926 52.921 78.724 54.486 80.166 C 56.051 81.607 57.926 82.328 60.111 82.328 Z M 72.708 70.022 L 73.59 70.022 C 74.24 70.022 74.768 69.761 75.178 69.239 C 75.587 68.717 75.792 68.107 75.792 67.41 C 75.792 66.824 75.574 66.333 75.139 65.936 C 74.704 65.54 74.184 65.342 73.583 65.342 L 72.708 65.342 L 72.708 70.022 Z M 47.82 93.314 L 47.82 88.994 L 75.374 88.994 L 75.374 93.314 L 47.82 93.314 Z M 60.236 74.411 Z" style="stroke-width: 0.042px; fill: rgb(67, 141, 230);"/>
</svg>