<?xml version="1.0" encoding="utf-8"?>
<svg height="128px" viewBox="0 0 128 128" width="128px" xmlns="http://www.w3.org/2000/svg">
  <linearGradient id="a" gradientTransform="matrix(0.45451 0 0 0.455522 -1210.292114 616.172607)" gradientUnits="userSpaceOnUse" x1="2689.251953" x2="2918.069824" y1="-1106.802979" y2="-1106.802979">
    <stop offset="0" stop-color="#62a0ea"/>
    <stop offset="0.0577" stop-color="#afd4ff"/>
    <stop offset="0.1222" stop-color="#62a0ea"/>
    <stop offset="0.8733" stop-color="#62a0ea"/>
    <stop offset="0.956" stop-color="#c0d5ea"/>
    <stop offset="1" stop-color="#62a0ea"/>
  </linearGradient>
  <path d="m 21.976562 12 c -5.527343 0 -9.976562 4.460938 -9.976562 10 v 86.03125 c 0 5.542969 4.449219 10 9.976562 10 h 84.042969 c 5.53125 0 9.980469 -4.457031 9.980469 -10 v -72.085938 c 0 -6.628906 -5.359375 -12 -11.972656 -12 h -46.027344 c -2.453125 0 -4.695312 -1.386718 -5.796875 -3.582031 l -1.503906 -2.992187 c -1.65625 -3.292969 -5.019531 -5.371094 -8.699219 -5.371094 z m 0 0" fill="#438de6"/>
  <path d="m 65.976562 36 c -2.746093 0 -5.226562 1.101562 -7.027343 2.890625 c -2.273438 2.253906 -5.382813 5.109375 -8.632813 5.109375 h -28.339844 c -5.527343 0 -9.976562 4.460938 -9.976562 10 v 54.03125 c 0 5.542969 4.449219 10 9.976562 10 h 84.042969 c 5.53125 0 9.980469 -4.457031 9.980469 -10 v -62.03125 c 0 -5.539062 -4.449219 -10 -9.980469 -10 z m 0 0" fill="url(#a)"/>
  <path d="m 65.976562 32 c -2.746093 0 -5.226562 1.101562 -7.027343 2.890625 c -2.273438 2.253906 -5.382813 5.109375 -8.632813 5.109375 h -28.339844 c -5.527343 0 -9.976562 4.460938 -9.976562 10 v 55.976562 c 0 5.539063 4.449219 10 9.976562 10 h 84.042969 c 5.53125 0 9.980469 -4.460937 9.980469 -10 v -63.976562 c 0 -5.539062 -4.449219 -10 -9.980469 -10 z m 0 0" fill="#a4caee"/>
  <path d="M 58.421 84.362 C 56.798 83.099 55.727 81.508 55.208 79.592 L 46.152 79.592 L 46.152 74.675 L 55.208 74.675 C 55.727 72.758 56.798 71.168 58.421 69.904 C 60.044 68.64 61.9 68.008 63.99 68.008 C 66.079 68.008 67.934 68.64 69.551 69.904 C 71.169 71.168 72.251 72.758 72.801 74.675 L 81.848 74.675 L 81.848 79.592 L 72.801 79.592 C 72.251 81.508 71.169 83.099 69.551 84.362 C 67.934 85.626 66.079 86.258 63.99 86.258 C 61.9 86.258 60.044 85.626 58.421 84.362 Z M 63.986 81.897 C 65.311 81.897 66.436 81.434 67.361 80.507 C 68.286 79.581 68.749 78.456 68.749 77.132 C 68.749 75.809 68.288 74.684 67.363 73.758 C 66.439 72.832 65.316 72.369 63.995 72.369 C 62.674 72.369 61.549 72.832 60.618 73.756 C 59.688 74.681 59.223 75.803 59.223 77.124 C 59.223 78.445 59.686 79.571 60.611 80.501 C 61.538 81.432 62.663 81.897 63.986 81.897 Z" style="stroke-width: 0.042px; fill: rgb(67, 141, 230);"/>
</svg>