<?xml version="1.0" encoding="utf-8"?>
<svg height="128px" viewBox="0 0 128 128" width="128px" xmlns="http://www.w3.org/2000/svg">
  <linearGradient id="a" gradientTransform="matrix(0.45451 0 0 0.455522 -1210.292114 616.172607)" gradientUnits="userSpaceOnUse" x1="2689.251953" x2="2918.069824" y1="-1106.802979" y2="-1106.802979">
    <stop offset="0" stop-color="#62a0ea"/>
    <stop offset="0.0577" stop-color="#afd4ff"/>
    <stop offset="0.1222" stop-color="#62a0ea"/>
    <stop offset="0.8733" stop-color="#62a0ea"/>
    <stop offset="0.956" stop-color="#c0d5ea"/>
    <stop offset="1" stop-color="#62a0ea"/>
  </linearGradient>
  <path d="m 21.976562 12 c -5.527343 0 -9.976562 4.460938 -9.976562 10 v 86.03125 c 0 5.542969 4.449219 10 9.976562 10 h 84.042969 c 5.53125 0 9.980469 -4.457031 9.980469 -10 v -72.085938 c 0 -6.628906 -5.359375 -12 -11.972656 -12 h -46.027344 c -2.453125 0 -4.695312 -1.386718 -5.796875 -3.582031 l -1.503906 -2.992187 c -1.65625 -3.292969 -5.019531 -5.371094 -8.699219 -5.371094 z m 0 0" fill="#438de6"/>
  <path d="m 65.976562 36 c -2.746093 0 -5.226562 1.101562 -7.027343 2.890625 c -2.273438 2.253906 -5.382813 5.109375 -8.632813 5.109375 h -28.339844 c -5.527343 0 -9.976562 4.460938 -9.976562 10 v 54.03125 c 0 5.542969 4.449219 10 9.976562 10 h 84.042969 c 5.53125 0 9.980469 -4.457031 9.980469 -10 v -62.03125 c 0 -5.539062 -4.449219 -10 -9.980469 -10 z m 0 0" fill="url(#a)"/>
  <path d="m 65.976562 32 c -2.746093 0 -5.226562 1.101562 -7.027343 2.890625 c -2.273438 2.253906 -5.382813 5.109375 -8.632813 5.109375 h -28.339844 c -5.527343 0 -9.976562 4.460938 -9.976562 10 v 55.976562 c 0 5.539063 4.449219 10 9.976562 10 h 84.042969 c 5.53125 0 9.980469 -4.460937 9.980469 -10 v -63.976562 c 0 -5.539062 -4.449219 -10 -9.980469 -10 z m 0 0" fill="#a4caee"/>
  <path d="M 54.771 95.765 L 51.84 93.557 L 56.604 87.196 L 56.327 79.821 C 56.262 78.506 56.335 77.094 56.549 75.585 C 56.762 74.075 57.063 72.756 57.452 71.626 L 54.354 73.543 L 54.354 79.057 L 50.688 79.057 L 50.688 71.418 L 57.632 67.223 C 58.206 66.899 58.734 66.645 59.215 66.46 C 59.697 66.274 60.169 66.182 60.632 66.182 C 61.54 66.182 62.372 66.557 63.132 67.307 C 63.891 68.057 64.706 69.251 65.577 70.89 C 66.085 71.983 66.969 72.886 68.23 73.598 C 69.488 74.311 70.919 74.733 72.521 74.863 C 72.688 74.835 72.874 74.795 73.083 74.744 C 73.292 74.693 73.497 74.668 73.702 74.668 C 74.691 74.668 75.542 75.052 76.249 75.821 C 76.958 76.589 77.313 77.501 77.313 78.557 L 77.313 95.724 L 74.535 95.724 L 74.535 78.557 C 74.535 78.261 74.424 78.002 74.202 77.779 C 73.979 77.557 73.719 77.446 73.424 77.446 C 73.128 77.446 72.868 77.557 72.646 77.779 C 72.424 78.002 72.313 78.261 72.313 78.557 L 72.313 79.89 L 69.535 79.89 L 69.535 77.918 C 68.6 77.761 67.555 77.362 66.402 76.723 C 65.249 76.085 64.279 75.353 63.493 74.529 C 63.29 75.168 63.135 75.863 63.027 76.613 C 62.921 77.363 62.882 78.122 62.91 78.89 L 66.66 84.168 L 66.66 95.724 L 62.965 95.724 L 62.965 85.654 L 60.813 83.223 L 60.229 88.501 L 54.771 95.765 Z M 64.16 65.473 C 63.206 65.473 62.389 65.133 61.708 64.453 C 61.027 63.772 60.688 62.946 60.688 61.973 C 60.688 61.02 61.025 60.203 61.702 59.522 C 62.378 58.841 63.197 58.501 64.16 58.501 C 65.141 58.501 65.969 58.839 66.646 59.515 C 67.322 60.191 67.66 61.011 67.66 61.973 C 67.66 62.955 67.314 63.784 66.624 64.46 C 65.936 65.135 65.113 65.473 64.16 65.473 Z" style="stroke-width: 0.042px; fill: rgb(67, 141, 230);"/>
</svg>