<?xml version="1.0" encoding="utf-8"?>
<svg height="128px" viewBox="0 0 128 128" width="128px" xmlns="http://www.w3.org/2000/svg">
  <linearGradient id="a" gradientTransform="matrix(0.45451 0 0 0.455522 -1210.292114 616.172607)" gradientUnits="userSpaceOnUse" x1="2689.251953" x2="2918.069824" y1="-1106.802979" y2="-1106.802979">
    <stop offset="0" stop-color="#62a0ea"/>
    <stop offset="0.0577" stop-color="#afd4ff"/>
    <stop offset="0.1222" stop-color="#62a0ea"/>
    <stop offset="0.8733" stop-color="#62a0ea"/>
    <stop offset="0.956" stop-color="#c0d5ea"/>
    <stop offset="1" stop-color="#62a0ea"/>
  </linearGradient>
  <path d="m 21.976562 12 c -5.527343 0 -9.976562 4.460938 -9.976562 10 v 86.03125 c 0 5.542969 4.449219 10 9.976562 10 h 84.042969 c 5.53125 0 9.980469 -4.457031 9.980469 -10 v -72.085938 c 0 -6.628906 -5.359375 -12 -11.972656 -12 h -46.027344 c -2.453125 0 -4.695312 -1.386718 -5.796875 -3.582031 l -1.503906 -2.992187 c -1.65625 -3.292969 -5.019531 -5.371094 -8.699219 -5.371094 z m 0 0" fill="#438de6"/>
  <path d="m 65.976562 36 c -2.746093 0 -5.226562 1.101562 -7.027343 2.890625 c -2.273438 2.253906 -5.382813 5.109375 -8.632813 5.109375 h -28.339844 c -5.527343 0 -9.976562 4.460938 -9.976562 10 v 54.03125 c 0 5.542969 4.449219 10 9.976562 10 h 84.042969 c 5.53125 0 9.980469 -4.457031 9.980469 -10 v -62.03125 c 0 -5.539062 -4.449219 -10 -9.980469 -10 z m 0 0" fill="url(#a)"/>
  <path d="m 65.976562 32 c -2.746093 0 -5.226562 1.101562 -7.027343 2.890625 c -2.273438 2.253906 -5.382813 5.109375 -8.632813 5.109375 h -28.339844 c -5.527343 0 -9.976562 4.460938 -9.976562 10 v 55.976562 c 0 5.539063 4.449219 10 9.976562 10 h 84.042969 c 5.53125 0 9.980469 -4.460937 9.980469 -10 v -63.976562 c 0 -5.539062 -4.449219 -10 -9.980469 -10 z m 0 0" fill="#a4caee"/>
  <path d="M 75.439 67.146 C 74.424 67.146 73.553 66.788 72.826 66.074 C 72.1 65.36 71.737 64.504 71.737 63.505 C 71.737 62.497 72.101 61.627 72.829 60.896 C 73.559 60.164 74.426 59.798 75.434 59.798 C 76.449 59.798 77.322 60.163 78.048 60.891 C 78.775 61.62 79.14 62.49 79.14 63.502 C 79.14 64.497 78.779 65.354 78.058 66.071 C 77.337 66.787 76.463 67.146 75.439 67.146 Z M 71.806 94.715 L 71.806 80.534 C 71.806 79.758 71.633 79.053 71.288 78.421 C 70.944 77.788 70.426 77.345 69.737 77.09 L 71.973 71.187 C 72.223 70.502 72.673 69.946 73.324 69.521 C 73.976 69.095 74.684 68.882 75.449 68.882 C 76.214 68.882 76.923 69.099 77.576 69.534 C 78.229 69.97 78.676 70.521 78.917 71.187 L 84.098 84.604 L 78.723 84.604 L 78.723 94.715 L 71.806 94.715 Z M 62.021 76.198 C 61.432 75.594 61.138 74.869 61.138 74.024 C 61.138 73.179 61.431 72.46 62.017 71.867 C 62.602 71.275 63.317 70.979 64.162 70.979 C 65.007 70.979 65.729 71.276 66.326 71.871 C 66.923 72.465 67.223 73.185 67.223 74.031 C 67.223 74.876 66.925 75.599 66.33 76.201 C 65.737 76.803 65.017 77.104 64.17 77.104 C 63.325 77.104 62.608 76.802 62.021 76.198 Z M 50.954 67.146 C 49.923 67.146 49.048 66.788 48.33 66.074 C 47.609 65.36 47.25 64.504 47.25 63.505 C 47.25 62.497 47.607 61.627 48.32 60.896 C 49.033 60.164 49.906 59.798 50.935 59.798 C 51.948 59.798 52.811 60.163 53.525 60.891 C 54.24 61.62 54.597 62.49 54.597 63.502 C 54.597 64.497 54.242 65.354 53.532 66.071 C 52.822 66.787 51.962 67.146 50.954 67.146 Z M 46.791 94.715 L 46.791 82.951 L 43.902 82.951 L 43.902 73.437 C 43.902 72.199 44.341 71.153 45.219 70.3 C 46.097 69.447 47.145 69.021 48.362 69.021 L 53.484 69.021 C 54.684 69.021 55.726 69.447 56.614 70.3 C 57.5 71.153 57.944 72.199 57.944 73.437 L 57.944 82.951 L 55.097 82.951 L 55.097 94.715 L 46.791 94.715 Z M 61.277 94.715 L 61.277 87.646 L 59.333 87.646 L 59.333 81.799 C 59.333 80.855 59.653 80.066 60.292 79.431 C 60.931 78.796 61.719 78.479 62.652 78.479 L 65.709 78.479 C 66.625 78.479 67.406 78.796 68.056 79.431 C 68.703 80.066 69.028 80.855 69.028 81.799 L 69.028 87.646 L 67.084 87.646 L 67.084 94.715 L 61.277 94.715 Z" style="stroke-width: 0.042px; fill: rgb(67, 141, 230);"/>
</svg>