<?xml version="1.0" encoding="utf-8"?>
<svg height="128px" viewBox="0 0 128 128" width="128px" xmlns="http://www.w3.org/2000/svg">
  <linearGradient id="a" gradientTransform="matrix(0.45451 0 0 0.455522 -1210.292114 616.172607)" gradientUnits="userSpaceOnUse" x1="2689.251953" x2="2918.069824" y1="-1106.802979" y2="-1106.802979">
    <stop offset="0" stop-color="#62a0ea"/>
    <stop offset="0.0577" stop-color="#afd4ff"/>
    <stop offset="0.1222" stop-color="#62a0ea"/>
    <stop offset="0.8733" stop-color="#62a0ea"/>
    <stop offset="0.956" stop-color="#c0d5ea"/>
    <stop offset="1" stop-color="#62a0ea"/>
  </linearGradient>
  <path d="m 21.976562 12 c -5.527343 0 -9.976562 4.460938 -9.976562 10 v 86.03125 c 0 5.542969 4.449219 10 9.976562 10 h 84.042969 c 5.53125 0 9.980469 -4.457031 9.980469 -10 v -72.085938 c 0 -6.628906 -5.359375 -12 -11.972656 -12 h -46.027344 c -2.453125 0 -4.695312 -1.386718 -5.796875 -3.582031 l -1.503906 -2.992187 c -1.65625 -3.292969 -5.019531 -5.371094 -8.699219 -5.371094 z m 0 0" fill="#438de6"/>
  <path d="m 65.976562 36 c -2.746093 0 -5.226562 1.101562 -7.027343 2.890625 c -2.273438 2.253906 -5.382813 5.109375 -8.632813 5.109375 h -28.339844 c -5.527343 0 -9.976562 4.460938 -9.976562 10 v 54.03125 c 0 5.542969 4.449219 10 9.976562 10 h 84.042969 c 5.53125 0 9.980469 -4.457031 9.980469 -10 v -62.03125 c 0 -5.539062 -4.449219 -10 -9.980469 -10 z m 0 0" fill="url(#a)"/>
  <path d="m 65.976562 32 c -2.746093 0 -5.226562 1.101562 -7.027343 2.890625 c -2.273438 2.253906 -5.382813 5.109375 -8.632813 5.109375 h -28.339844 c -5.527343 0 -9.976562 4.460938 -9.976562 10 v 55.976562 c 0 5.539063 4.449219 10 9.976562 10 h 84.042969 c 5.53125 0 9.980469 -4.460937 9.980469 -10 v -63.976562 c 0 -5.539062 -4.449219 -10 -9.980469 -10 z m 0 0" fill="#a4caee"/>
  <path d="M 49.722 86.498 L 49.722 66.22 L 49.722 88.692 L 49.722 86.498 Z M 49.722 90.914 C 48.505 90.914 47.465 90.481 46.601 89.614 C 45.738 88.747 45.306 87.708 45.306 86.498 L 45.306 66.22 C 45.306 65.002 45.738 63.956 46.601 63.084 C 47.465 62.211 48.505 61.775 49.722 61.775 L 59.875 61.775 L 63.222 65.15 L 76.667 65.15 C 77.885 65.15 78.931 65.584 79.803 66.451 C 80.676 67.318 81.111 68.356 81.111 69.567 L 81.111 79.581 L 76.667 79.581 L 76.667 69.567 L 61.417 69.567 L 58.069 66.22 L 49.722 66.22 L 49.722 86.498 L 58.319 86.498 L 58.319 90.914 L 49.722 90.914 Z M 67.861 95.428 L 61.056 88.692 L 67.861 81.956 L 70.917 85.067 L 67.375 88.692 L 70.917 92.317 L 67.861 95.428 Z M 75.889 95.428 L 72.792 92.317 L 76.403 88.692 L 72.792 85.067 L 75.889 81.956 L 82.694 88.692 L 75.889 95.428 Z" style="stroke-width: 0.042px; fill: rgb(67, 141, 230);"/>
</svg>