<?xml version="1.0" encoding="utf-8"?>
<svg height="128px" viewBox="0 0 128 128" width="128px" xmlns="http://www.w3.org/2000/svg">
  <linearGradient id="a" gradientTransform="matrix(0.45451 0 0 0.455522 -1210.292114 616.172607)" gradientUnits="userSpaceOnUse" x1="2689.251953" x2="2918.069824" y1="-1106.802979" y2="-1106.802979">
    <stop offset="0" stop-color="#62a0ea"/>
    <stop offset="0.0577" stop-color="#afd4ff"/>
    <stop offset="0.1222" stop-color="#62a0ea"/>
    <stop offset="0.8733" stop-color="#62a0ea"/>
    <stop offset="0.956" stop-color="#c0d5ea"/>
    <stop offset="1" stop-color="#62a0ea"/>
  </linearGradient>
  <path d="m 21.976562 12 c -5.527343 0 -9.976562 4.460938 -9.976562 10 v 86.03125 c 0 5.542969 4.449219 10 9.976562 10 h 84.042969 c 5.53125 0 9.980469 -4.457031 9.980469 -10 v -72.085938 c 0 -6.628906 -5.359375 -12 -11.972656 -12 h -46.027344 c -2.453125 0 -4.695312 -1.386718 -5.796875 -3.582031 l -1.503906 -2.992187 c -1.65625 -3.292969 -5.019531 -5.371094 -8.699219 -5.371094 z m 0 0" fill="#438de6"/>
  <path d="m 65.976562 36 c -2.746093 0 -5.226562 1.101562 -7.027343 2.890625 c -2.273438 2.253906 -5.382813 5.109375 -8.632813 5.109375 h -28.339844 c -5.527343 0 -9.976562 4.460938 -9.976562 10 v 54.03125 c 0 5.542969 4.449219 10 9.976562 10 h 84.042969 c 5.53125 0 9.980469 -4.457031 9.980469 -10 v -62.03125 c 0 -5.539062 -4.449219 -10 -9.980469 -10 z m 0 0" fill="url(#a)"/>
  <path d="m 65.976562 32 c -2.746093 0 -5.226562 1.101562 -7.027343 2.890625 c -2.273438 2.253906 -5.382813 5.109375 -8.632813 5.109375 h -28.339844 c -5.527343 0 -9.976562 4.460938 -9.976562 10 v 55.976562 c 0 5.539063 4.449219 10 9.976562 10 h 84.042969 c 5.53125 0 9.980469 -4.460937 9.980469 -10 v -63.976562 c 0 -5.539062 -4.449219 -10 -9.980469 -10 z m 0 0" fill="#a4caee"/>
  <path d="M 50.625 92.647 L 50.625 75.633 C 49.653 75.503 48.845 75.08 48.201 74.362 C 47.558 73.645 47.236 72.807 47.236 71.849 L 47.236 62.786 C 47.236 62.479 47.354 62.208 47.588 61.972 C 47.823 61.737 48.102 61.619 48.426 61.619 C 48.751 61.619 49.036 61.737 49.283 61.972 C 49.53 62.208 49.653 62.479 49.653 62.786 L 49.653 68.939 L 51.389 68.939 L 51.389 62.794 C 51.389 62.474 51.504 62.199 51.734 61.967 C 51.963 61.735 52.236 61.619 52.553 61.619 C 52.87 61.619 53.146 61.735 53.382 61.967 C 53.618 62.199 53.736 62.474 53.736 62.794 L 53.736 68.939 L 55.472 68.939 L 55.472 62.794 C 55.472 62.474 55.593 62.199 55.834 61.967 C 56.074 61.735 56.355 61.619 56.674 61.619 C 56.993 61.619 57.269 61.737 57.5 61.972 C 57.732 62.208 57.847 62.479 57.847 62.786 L 57.847 71.849 C 57.847 72.807 57.528 73.645 56.889 74.362 C 56.25 75.08 55.454 75.503 54.5 75.633 L 54.5 92.647 L 50.625 92.647 Z M 63.389 92.647 L 63.389 75.367 C 62.241 74.674 61.385 73.752 60.82 72.601 C 60.255 71.45 59.972 70.155 59.972 68.716 C 59.972 66.856 60.449 65.208 61.403 63.773 C 62.357 62.337 63.657 61.619 65.303 61.619 C 66.949 61.619 68.255 62.337 69.22 63.773 C 70.185 65.208 70.667 66.856 70.667 68.716 C 70.667 70.155 70.375 71.452 69.792 72.607 C 69.209 73.761 68.343 74.682 67.195 75.369 L 67.195 92.647 L 63.389 92.647 Z M 73.417 92.647 L 73.417 61.619 C 75.38 61.693 77.095 62.36 78.563 63.619 C 80.03 64.879 80.764 66.476 80.764 68.411 L 80.764 79.036 L 77.264 79.036 L 77.264 92.647 L 73.417 92.647 Z" style="stroke-width: 0.042px; fill: rgb(67, 141, 230);"/>
</svg>