<?xml version="1.0" encoding="utf-8"?>
<svg height="128px" viewBox="0 0 128 128" width="128px" xmlns="http://www.w3.org/2000/svg">
  <linearGradient id="a" gradientTransform="matrix(0.45451 0 0 0.455522 -1210.292114 616.172607)" gradientUnits="userSpaceOnUse" x1="2689.251953" x2="2918.069824" y1="-1106.802979" y2="-1106.802979">
    <stop offset="0" stop-color="#62a0ea"/>
    <stop offset="0.0577" stop-color="#afd4ff"/>
    <stop offset="0.1222" stop-color="#62a0ea"/>
    <stop offset="0.8733" stop-color="#62a0ea"/>
    <stop offset="0.956" stop-color="#c0d5ea"/>
    <stop offset="1" stop-color="#62a0ea"/>
  </linearGradient>
  <path d="m 21.976562 12 c -5.527343 0 -9.976562 4.460938 -9.976562 10 v 86.03125 c 0 5.542969 4.449219 10 9.976562 10 h 84.042969 c 5.53125 0 9.980469 -4.457031 9.980469 -10 v -72.085938 c 0 -6.628906 -5.359375 -12 -11.972656 -12 h -46.027344 c -2.453125 0 -4.695312 -1.386718 -5.796875 -3.582031 l -1.503906 -2.992187 c -1.65625 -3.292969 -5.019531 -5.371094 -8.699219 -5.371094 z m 0 0" fill="#438de6"/>
  <path d="m 65.976562 36 c -2.746093 0 -5.226562 1.101562 -7.027343 2.890625 c -2.273438 2.253906 -5.382813 5.109375 -8.632813 5.109375 h -28.339844 c -5.527343 0 -9.976562 4.460938 -9.976562 10 v 54.03125 c 0 5.542969 4.449219 10 9.976562 10 h 84.042969 c 5.53125 0 9.980469 -4.457031 9.980469 -10 v -62.03125 c 0 -5.539062 -4.449219 -10 -9.980469 -10 z m 0 0" fill="url(#a)"/>
  <path d="m 65.976562 32 c -2.746093 0 -5.226562 1.101562 -7.027343 2.890625 c -2.273438 2.253906 -5.382813 5.109375 -8.632813 5.109375 h -28.339844 c -5.527343 0 -9.976562 4.460938 -9.976562 10 v 55.976562 c 0 5.539063 4.449219 10 9.976562 10 h 84.042969 c 5.53125 0 9.980469 -4.460937 9.980469 -10 v -63.976562 c 0 -5.539062 -4.449219 -10 -9.980469 -10 z m 0 0" fill="#a4caee"/>
  <path d="M 52.583 94.981 L 52.583 79.158 C 50.667 78.725 49.161 77.85 48.07 76.533 C 46.977 75.217 46.43 73.681 46.43 71.925 L 46.43 59.286 L 50.458 59.286 L 50.458 69.758 L 52.764 69.758 L 52.764 59.286 L 56.792 59.286 L 56.792 69.758 L 59.124 69.758 L 59.124 59.286 L 63.152 59.286 L 63.152 71.925 C 63.152 73.547 62.594 75.017 61.479 76.336 C 60.363 77.654 58.852 78.582 56.945 79.119 L 56.945 94.981 L 52.583 94.981 Z M 71.792 94.981 L 71.792 78.231 C 70.208 77.527 68.908 76.35 67.889 74.701 C 66.87 73.051 66.361 71.149 66.361 68.994 C 66.361 66.308 67.094 64.018 68.563 62.125 C 70.029 60.232 71.833 59.286 73.973 59.286 C 76.111 59.286 77.911 60.233 79.374 62.126 C 80.837 64.02 81.57 66.314 81.57 69.008 C 81.57 71.142 81.061 73.041 80.042 74.706 C 79.023 76.37 77.736 77.555 76.18 78.258 L 76.18 94.981 L 71.792 94.981 Z" style="stroke-width: 0.042px; fill: rgb(67, 141, 230);"/>
</svg>