<?xml version="1.0" encoding="utf-8"?>
<svg height="128px" viewBox="0 0 128 128" width="128px" xmlns="http://www.w3.org/2000/svg">
  <linearGradient id="a" gradientTransform="matrix(0.45451 0 0 0.455522 -1210.292114 616.172607)" gradientUnits="userSpaceOnUse" x1="2689.251953" x2="2918.069824" y1="-1106.802979" y2="-1106.802979">
    <stop offset="0" stop-color="#62a0ea"/>
    <stop offset="0.0577" stop-color="#afd4ff"/>
    <stop offset="0.1222" stop-color="#62a0ea"/>
    <stop offset="0.8733" stop-color="#62a0ea"/>
    <stop offset="0.956" stop-color="#c0d5ea"/>
    <stop offset="1" stop-color="#62a0ea"/>
  </linearGradient>
  <path d="m 21.976562 12 c -5.527343 0 -9.976562 4.460938 -9.976562 10 v 86.03125 c 0 5.542969 4.449219 10 9.976562 10 h 84.042969 c 5.53125 0 9.980469 -4.457031 9.980469 -10 v -72.085938 c 0 -6.628906 -5.359375 -12 -11.972656 -12 h -46.027344 c -2.453125 0 -4.695312 -1.386718 -5.796875 -3.582031 l -1.503906 -2.992187 c -1.65625 -3.292969 -5.019531 -5.371094 -8.699219 -5.371094 z m 0 0" fill="#438de6"/>
  <path d="m 65.976562 36 c -2.746093 0 -5.226562 1.101562 -7.027343 2.890625 c -2.273438 2.253906 -5.382813 5.109375 -8.632813 5.109375 h -28.339844 c -5.527343 0 -9.976562 4.460938 -9.976562 10 v 54.03125 c 0 5.542969 4.449219 10 9.976562 10 h 84.042969 c 5.53125 0 9.980469 -4.457031 9.980469 -10 v -62.03125 c 0 -5.539062 -4.449219 -10 -9.980469 -10 z m 0 0" fill="url(#a)"/>
  <path d="m 65.976562 32 c -2.746093 0 -5.226562 1.101562 -7.027343 2.890625 c -2.273438 2.253906 -5.382813 5.109375 -8.632813 5.109375 h -28.339844 c -5.527343 0 -9.976562 4.460938 -9.976562 10 v 55.976562 c 0 5.539063 4.449219 10 9.976562 10 h 84.042969 c 5.53125 0 9.980469 -4.460937 9.980469 -10 v -63.976562 c 0 -5.539062 -4.449219 -10 -9.980469 -10 z m 0 0" fill="#a4caee"/>
  <path d="M 51.84 91.304 C 49.84 91.304 48.146 90.609 46.757 89.219 C 45.369 87.83 44.661 86.123 44.632 84.097 C 44.632 83.837 44.644 83.551 44.667 83.237 C 44.689 82.924 44.748 82.626 44.84 82.345 L 48.34 68.303 C 48.807 66.578 49.743 65.169 51.146 64.078 C 52.549 62.988 54.115 62.442 55.84 62.442 L 72.09 62.442 C 73.816 62.442 75.381 62.988 76.785 64.078 C 78.188 65.169 79.142 66.578 79.646 68.303 L 83.146 82.304 C 83.211 82.602 83.265 82.905 83.306 83.214 C 83.348 83.524 83.368 83.831 83.368 84.136 C 83.368 86.153 82.656 87.852 81.229 89.233 C 79.804 90.613 78.091 91.304 76.092 91.304 C 74.693 91.304 73.408 90.94 72.237 90.213 C 71.064 89.487 70.178 88.503 69.576 87.262 L 68.41 84.859 C 68.4 84.776 68.345 84.718 68.246 84.686 C 68.146 84.653 68.038 84.637 67.924 84.637 L 60.007 84.637 C 59.891 84.637 59.785 84.653 59.685 84.686 C 59.584 84.718 59.53 84.776 59.521 84.859 L 58.354 87.262 C 57.752 88.503 56.862 89.487 55.685 90.213 C 54.507 90.94 53.225 91.304 51.84 91.304 Z M 51.956 86.887 C 52.492 86.887 52.968 86.746 53.388 86.464 C 53.806 86.182 54.133 85.814 54.368 85.359 L 55.535 82.984 C 55.932 82.131 56.535 81.457 57.341 80.962 C 58.148 80.468 59.036 80.22 60.007 80.22 L 67.924 80.22 C 68.892 80.22 69.773 80.476 70.57 80.988 C 71.366 81.5 71.997 82.165 72.465 82.984 L 73.632 85.359 C 73.849 85.814 74.165 86.182 74.585 86.464 C 75.004 86.746 75.484 86.887 76.027 86.887 C 76.803 86.887 77.471 86.63 78.034 86.117 C 78.595 85.605 78.887 84.958 78.91 84.179 C 78.91 83.947 78.872 83.679 78.799 83.373 L 75.299 69.415 C 75.109 68.723 74.72 68.124 74.133 67.618 C 73.546 67.112 72.865 66.859 72.09 66.859 L 55.84 66.859 C 55.083 66.859 54.398 67.106 53.789 67.601 C 53.179 68.096 52.803 68.701 52.66 69.415 L 49.16 83.373 C 49.188 83.355 49.151 83.609 49.049 84.137 C 49.049 84.932 49.333 85.594 49.901 86.122 C 50.468 86.651 51.153 86.906 51.956 86.887 Z M 67.459 74.542 C 67.723 74.275 67.854 73.943 67.854 73.548 C 67.854 73.154 67.72 72.824 67.453 72.561 C 67.187 72.297 66.855 72.165 66.461 72.165 C 66.065 72.165 65.737 72.298 65.473 72.565 C 65.209 72.832 65.076 73.163 65.076 73.558 C 65.076 73.953 65.21 74.283 65.477 74.546 C 65.744 74.81 66.076 74.942 66.47 74.942 C 66.865 74.942 67.195 74.809 67.459 74.542 Z M 70.791 71.208 C 71.056 70.941 71.188 70.61 71.188 70.215 C 71.188 69.82 71.053 69.491 70.786 69.227 C 70.52 68.963 70.188 68.831 69.794 68.831 C 69.398 68.831 69.07 68.965 68.806 69.232 C 68.541 69.499 68.41 69.83 68.41 70.225 C 68.41 70.62 68.544 70.949 68.811 71.213 C 69.077 71.477 69.409 71.609 69.803 71.609 C 70.199 71.609 70.527 71.475 70.791 71.208 Z M 70.791 77.875 C 71.056 77.608 71.188 77.277 71.188 76.882 C 71.188 76.487 71.053 76.158 70.786 75.894 C 70.52 75.63 70.188 75.498 69.794 75.498 C 69.398 75.498 69.07 75.632 68.806 75.899 C 68.541 76.166 68.41 76.497 68.41 76.892 C 68.41 77.287 68.544 77.616 68.811 77.88 C 69.077 78.144 69.409 78.276 69.803 78.276 C 70.199 78.276 70.527 78.142 70.791 77.875 Z M 74.124 74.542 C 74.388 74.275 74.521 73.943 74.521 73.548 C 74.521 73.154 74.387 72.824 74.12 72.561 C 73.854 72.297 73.521 72.165 73.127 72.165 C 72.732 72.165 72.402 72.298 72.14 72.565 C 71.876 72.832 71.743 73.163 71.743 73.558 C 71.743 73.953 71.877 74.283 72.144 74.546 C 72.41 74.81 72.742 74.942 73.136 74.942 C 73.532 74.942 73.86 74.809 74.124 74.542 Z M 58.931 77.266 C 59.139 77.057 59.243 76.791 59.243 76.47 L 59.243 74.665 L 61.049 74.665 C 61.369 74.665 61.635 74.559 61.844 74.349 C 62.054 74.138 62.16 73.872 62.16 73.55 C 62.16 73.228 62.054 72.963 61.844 72.755 C 61.635 72.546 61.369 72.442 61.049 72.442 L 59.243 72.442 L 59.243 70.637 C 59.243 70.316 59.138 70.05 58.928 69.841 C 58.716 69.631 58.451 69.526 58.129 69.526 C 57.806 69.526 57.542 69.631 57.333 69.841 C 57.125 70.05 57.021 70.316 57.021 70.637 L 57.021 72.442 L 55.215 72.442 C 54.895 72.442 54.629 72.548 54.418 72.758 C 54.208 72.969 54.104 73.235 54.104 73.557 C 54.104 73.879 54.208 74.144 54.418 74.352 C 54.629 74.561 54.895 74.665 55.215 74.665 L 57.021 74.665 L 57.021 76.47 C 57.021 76.791 57.125 77.057 57.336 77.266 C 57.547 77.476 57.813 77.581 58.136 77.581 C 58.458 77.581 58.722 77.476 58.931 77.266 Z M 63.965 76.887 Z" style="stroke-width: 0.042px; fill: rgb(67, 141, 230);"/>
</svg>