<?xml version="1.0" encoding="utf-8"?>
<svg height="128px" viewBox="0 0 128 128" width="128px" xmlns="http://www.w3.org/2000/svg">
  <linearGradient id="a" gradientTransform="matrix(0.45451 0 0 0.455522 -1210.292114 616.172607)" gradientUnits="userSpaceOnUse" x1="2689.251953" x2="2918.069824" y1="-1106.802979" y2="-1106.802979">
    <stop offset="0" stop-color="#62a0ea"/>
    <stop offset="0.0577" stop-color="#afd4ff"/>
    <stop offset="0.1222" stop-color="#62a0ea"/>
    <stop offset="0.8733" stop-color="#62a0ea"/>
    <stop offset="0.956" stop-color="#c0d5ea"/>
    <stop offset="1" stop-color="#62a0ea"/>
  </linearGradient>
  <path d="m 21.976562 12 c -5.527343 0 -9.976562 4.460938 -9.976562 10 v 86.03125 c 0 5.542969 4.449219 10 9.976562 10 h 84.042969 c 5.53125 0 9.980469 -4.457031 9.980469 -10 v -72.085938 c 0 -6.628906 -5.359375 -12 -11.972656 -12 h -46.027344 c -2.453125 0 -4.695312 -1.386718 -5.796875 -3.582031 l -1.503906 -2.992187 c -1.65625 -3.292969 -5.019531 -5.371094 -8.699219 -5.371094 z m 0 0" fill="#438de6"/>
  <path d="m 65.976562 36 c -2.746093 0 -5.226562 1.101562 -7.027343 2.890625 c -2.273438 2.253906 -5.382813 5.109375 -8.632813 5.109375 h -28.339844 c -5.527343 0 -9.976562 4.460938 -9.976562 10 v 54.03125 c 0 5.542969 4.449219 10 9.976562 10 h 84.042969 c 5.53125 0 9.980469 -4.457031 9.980469 -10 v -62.03125 c 0 -5.539062 -4.449219 -10 -9.980469 -10 z m 0 0" fill="url(#a)"/>
  <path d="m 65.976562 32 c -2.746093 0 -5.226562 1.101562 -7.027343 2.890625 c -2.273438 2.253906 -5.382813 5.109375 -8.632813 5.109375 h -28.339844 c -5.527343 0 -9.976562 4.460938 -9.976562 10 v 55.976562 c 0 5.539063 4.449219 10 9.976562 10 h 84.042969 c 5.53125 0 9.980469 -4.460937 9.980469 -10 v -63.976562 c 0 -5.539062 -4.449219 -10 -9.980469 -10 z m 0 0" fill="#a4caee"/>
  <path d="M 47.566 77.443 C 47.184 77.029 46.993 76.542 46.993 75.982 C 46.993 75.422 47.183 74.952 47.562 74.571 L 52.382 69.779 L 50.577 67.946 L 49.674 68.918 C 49.247 69.298 48.76 69.488 48.213 69.488 C 47.667 69.488 47.201 69.299 46.816 68.923 C 46.416 68.526 46.215 68.054 46.215 67.505 C 46.215 66.956 46.415 66.474 46.814 66.059 L 51.507 61.348 C 51.905 60.95 52.377 60.751 52.923 60.751 C 53.47 60.751 53.95 60.954 54.365 61.359 C 54.747 61.75 54.938 62.223 54.938 62.778 C 54.938 63.333 54.748 63.801 54.368 64.182 L 53.396 65.194 L 55.202 66.96 L 60.035 62.098 C 60.438 61.719 60.915 61.529 61.469 61.529 C 62.022 61.529 62.498 61.719 62.896 62.098 C 63.276 62.498 63.466 62.974 63.466 63.527 C 63.466 64.081 63.276 64.558 62.896 64.96 L 61.993 65.848 L 74.674 78.501 C 75.535 79.362 75.966 80.394 75.966 81.597 C 75.966 82.8 75.535 83.823 74.674 84.668 L 73.813 85.488 L 81.785 93.515 L 76.146 93.515 L 70.979 88.349 L 70.132 89.21 C 69.275 90.052 68.248 90.474 67.052 90.474 C 65.855 90.474 64.817 90.052 63.938 89.21 L 51.285 76.529 L 50.424 77.432 C 50.034 77.83 49.559 78.029 48.998 78.029 C 48.438 78.029 47.961 77.834 47.566 77.443 Z M 54.118 73.71 L 66.993 86.585 L 72.077 81.598 L 69.452 79.001 L 67.646 80.848 C 67.248 81.265 66.773 81.469 66.223 81.46 C 65.672 81.451 65.2 81.254 64.809 80.869 C 64.413 80.463 64.216 79.981 64.216 79.423 C 64.216 78.864 64.415 78.395 64.813 78.015 L 66.646 76.168 L 64.563 74.085 L 62.716 75.89 C 62.313 76.307 61.835 76.515 61.282 76.515 C 60.728 76.515 60.253 76.31 59.855 75.901 C 59.457 75.521 59.257 75.057 59.257 74.508 C 59.257 73.958 59.456 73.475 59.854 73.057 L 61.702 71.251 L 59.132 68.654 L 54.118 73.71 Z M 53.924 73.515 L 58.938 68.46 L 53.924 73.515 Z" style="stroke-width: 0.042px; fill: rgb(67, 141, 230);"/>
</svg>