<?xml version="1.0" encoding="utf-8"?>
<svg height="128px" viewBox="0 0 128 128" width="128px" xmlns="http://www.w3.org/2000/svg">
  <linearGradient id="a" gradientTransform="matrix(0.45451 0 0 0.455522 -1210.292114 616.172607)" gradientUnits="userSpaceOnUse" x1="2689.251953" x2="2918.069824" y1="-1106.802979" y2="-1106.802979">
    <stop offset="0" stop-color="#62a0ea"/>
    <stop offset="0.0577" stop-color="#afd4ff"/>
    <stop offset="0.1222" stop-color="#62a0ea"/>
    <stop offset="0.8733" stop-color="#62a0ea"/>
    <stop offset="0.956" stop-color="#c0d5ea"/>
    <stop offset="1" stop-color="#62a0ea"/>
  </linearGradient>
  <path d="m 21.976562 12 c -5.527343 0 -9.976562 4.460938 -9.976562 10 v 86.03125 c 0 5.542969 4.449219 10 9.976562 10 h 84.042969 c 5.53125 0 9.980469 -4.457031 9.980469 -10 v -72.085938 c 0 -6.628906 -5.359375 -12 -11.972656 -12 h -46.027344 c -2.453125 0 -4.695312 -1.386718 -5.796875 -3.582031 l -1.503906 -2.992187 c -1.65625 -3.292969 -5.019531 -5.371094 -8.699219 -5.371094 z m 0 0" fill="#438de6"/>
  <path d="m 65.976562 36 c -2.746093 0 -5.226562 1.101562 -7.027343 2.890625 c -2.273438 2.253906 -5.382813 5.109375 -8.632813 5.109375 h -28.339844 c -5.527343 0 -9.976562 4.460938 -9.976562 10 v 54.03125 c 0 5.542969 4.449219 10 9.976562 10 h 84.042969 c 5.53125 0 9.980469 -4.457031 9.980469 -10 v -62.03125 c 0 -5.539062 -4.449219 -10 -9.980469 -10 z m 0 0" fill="url(#a)"/>
  <path d="m 65.976562 32 c -2.746093 0 -5.226562 1.101562 -7.027343 2.890625 c -2.273438 2.253906 -5.382813 5.109375 -8.632813 5.109375 h -28.339844 c -5.527343 0 -9.976562 4.460938 -9.976562 10 v 55.976562 c 0 5.539063 4.449219 10 9.976562 10 h 84.042969 c 5.53125 0 9.980469 -4.460937 9.980469 -10 v -63.976562 c 0 -5.539062 -4.449219 -10 -9.980469 -10 z m 0 0" fill="#a4caee"/>
  <path d="M 46.479 87.279 L 45.132 84.904 C 45.706 84.599 46.258 84.244 46.792 83.842 C 47.324 83.439 47.844 83.024 48.354 82.598 L 48.354 78.265 L 45.562 78.265 L 45.562 75.793 L 50.91 75.793 L 50.91 82.487 C 51.475 83.154 52.152 83.642 52.945 83.952 C 53.736 84.263 54.572 84.418 55.452 84.418 C 57.229 84.418 58.999 84.402 60.764 84.369 C 62.527 84.337 64.299 84.279 66.077 84.196 C 65.863 84.622 65.674 85.047 65.507 85.473 C 65.34 85.899 65.206 86.344 65.104 86.807 C 63.465 86.862 61.833 86.876 60.208 86.848 C 58.583 86.821 56.96 86.807 55.34 86.807 C 54.285 86.807 53.258 86.633 52.264 86.286 C 51.268 85.939 50.376 85.404 49.59 84.682 C 49.09 85.154 48.581 85.605 48.062 86.036 C 47.544 86.466 47.016 86.881 46.479 87.279 Z M 57.16 83.668 L 57.16 80.084 C 56.529 80.77 55.865 81.406 55.167 81.994 C 54.467 82.582 53.738 83.131 52.979 83.64 C 52.682 83.279 52.38 82.929 52.07 82.592 C 51.758 82.254 51.424 81.936 51.062 81.64 C 51.969 81.233 52.833 80.765 53.652 80.237 C 54.471 79.71 55.21 79.071 55.868 78.321 L 52.743 78.321 L 52.743 72.501 L 57.202 72.501 L 57.202 71.168 L 51.91 71.168 L 51.91 68.848 L 57.202 68.848 L 57.202 66.987 L 59.674 66.987 L 59.674 68.848 L 65.34 68.848 L 65.34 71.168 L 59.674 71.168 L 59.674 72.501 L 64.382 72.501 L 64.382 78.279 L 61.035 78.279 C 61.757 78.955 62.518 79.568 63.32 80.119 C 64.12 80.67 64.984 81.149 65.91 81.557 C 65.521 81.834 65.176 82.133 64.874 82.452 C 64.574 82.772 64.316 83.131 64.104 83.529 C 63.243 83.103 62.454 82.605 61.736 82.036 C 61.018 81.466 60.331 80.834 59.674 80.14 L 59.674 83.668 L 57.16 83.668 Z M 57.16 74.584 L 55.104 74.584 L 55.104 76.237 L 57.16 76.237 L 57.16 74.584 Z M 61.91 74.584 L 59.632 74.584 L 59.632 76.237 L 61.91 76.237 L 61.91 74.584 Z M 49.604 72.723 C 49.066 71.927 48.441 71.207 47.729 70.564 C 47.016 69.92 46.247 69.367 45.424 68.904 L 47.34 67.251 C 48.146 67.797 48.896 68.402 49.59 69.064 C 50.285 69.726 50.965 70.39 51.632 71.057 L 49.604 72.723 Z M 79.174 81.251 L 79.174 77.237 C 78.525 77.339 77.952 77.45 77.452 77.571 C 76.952 77.691 76.465 77.83 75.993 77.987 C 74.844 78.358 74.012 78.786 73.493 79.272 C 72.975 79.758 72.715 80.325 72.715 80.973 C 72.715 81.612 72.921 82.124 73.333 82.508 C 73.745 82.892 74.285 83.085 74.952 83.085 C 75.572 83.085 76.253 82.925 76.993 82.605 C 77.734 82.286 78.46 81.835 79.174 81.251 Z M 79.715 85.821 L 79.465 84.098 C 78.65 84.793 77.764 85.316 76.805 85.668 C 75.848 86.02 74.919 86.196 74.021 86.196 C 72.529 86.196 71.329 85.763 70.417 84.897 C 69.505 84.031 69.049 82.848 69.049 81.348 C 69.049 79.922 69.54 78.716 70.521 77.73 C 71.503 76.744 72.988 75.95 74.979 75.348 C 75.516 75.182 76.113 75.038 76.771 74.918 C 77.428 74.798 78.225 74.673 79.16 74.543 C 79.141 73.311 78.924 72.399 78.507 71.807 C 78.09 71.214 77.368 70.918 76.34 70.918 C 75.646 70.918 74.904 71.066 74.118 71.362 C 73.331 71.658 72.419 72.158 71.382 72.862 L 69.827 70.112 C 70.938 69.307 72.109 68.691 73.34 68.265 C 74.572 67.839 75.766 67.626 76.924 67.626 C 78.924 67.626 80.415 68.258 81.396 69.522 C 82.378 70.786 82.868 72.603 82.868 74.973 L 82.868 85.821 L 79.715 85.821 Z" style="stroke-width: 0.042px; fill: rgb(67, 141, 230);"/>
</svg>