<?xml version="1.0" encoding="utf-8"?>
<svg height="128px" viewBox="0 0 128 128" width="128px" xmlns="http://www.w3.org/2000/svg">
  <linearGradient id="a" gradientTransform="matrix(0.45451 0 0 0.455522 -1210.292114 616.172607)" gradientUnits="userSpaceOnUse" x1="2689.251953" x2="2918.069824" y1="-1106.802979" y2="-1106.802979">
    <stop offset="0" stop-color="#62a0ea"/>
    <stop offset="0.0577" stop-color="#afd4ff"/>
    <stop offset="0.1222" stop-color="#62a0ea"/>
    <stop offset="0.8733" stop-color="#62a0ea"/>
    <stop offset="0.956" stop-color="#c0d5ea"/>
    <stop offset="1" stop-color="#62a0ea"/>
  </linearGradient>
  <path d="m 21.976562 12 c -5.527343 0 -9.976562 4.460938 -9.976562 10 v 86.03125 c 0 5.542969 4.449219 10 9.976562 10 h 84.042969 c 5.53125 0 9.980469 -4.457031 9.980469 -10 v -72.085938 c 0 -6.628906 -5.359375 -12 -11.972656 -12 h -46.027344 c -2.453125 0 -4.695312 -1.386718 -5.796875 -3.582031 l -1.503906 -2.992187 c -1.65625 -3.292969 -5.019531 -5.371094 -8.699219 -5.371094 z m 0 0" fill="#438de6"/>
  <path d="m 65.976562 36 c -2.746093 0 -5.226562 1.101562 -7.027343 2.890625 c -2.273438 2.253906 -5.382813 5.109375 -8.632813 5.109375 h -28.339844 c -5.527343 0 -9.976562 4.460938 -9.976562 10 v 54.03125 c 0 5.542969 4.449219 10 9.976562 10 h 84.042969 c 5.53125 0 9.980469 -4.457031 9.980469 -10 v -62.03125 c 0 -5.539062 -4.449219 -10 -9.980469 -10 z m 0 0" fill="url(#a)"/>
  <path d="m 65.976562 32 c -2.746093 0 -5.226562 1.101562 -7.027343 2.890625 c -2.273438 2.253906 -5.382813 5.109375 -8.632813 5.109375 h -28.339844 c -5.527343 0 -9.976562 4.460938 -9.976562 10 v 55.976562 c 0 5.539063 4.449219 10 9.976562 10 h 84.042969 c 5.53125 0 9.980469 -4.460937 9.980469 -10 v -63.976562 c 0 -5.539062 -4.449219 -10 -9.980469 -10 z m 0 0" fill="#a4caee"/>
  <path d="M 52.18 93.314 C 50.967 93.314 49.937 92.891 49.09 92.044 C 48.243 91.197 47.82 90.167 47.82 88.953 L 47.82 65.342 C 47.82 64.139 48.243 63.106 49.09 62.245 C 49.937 61.383 50.967 60.952 52.18 60.952 L 75.792 60.952 C 76.995 60.952 78.027 61.383 78.889 62.245 C 79.749 63.106 80.18 64.139 80.18 65.342 L 80.18 88.953 C 80.18 90.167 79.749 91.197 78.889 92.044 C 78.027 92.891 76.995 93.314 75.792 93.314 L 52.18 93.314 Z M 52.18 88.953 L 57.374 88.953 L 57.374 81.314 L 56.958 81.314 C 56.471 81.314 56.07 81.158 55.758 80.846 C 55.447 80.535 55.292 80.134 55.292 79.643 L 55.292 65.342 L 52.18 65.342 L 52.18 88.953 Z M 70.598 88.953 L 75.792 88.953 L 75.792 65.342 L 72.68 65.342 L 72.68 79.643 C 72.68 80.134 72.525 80.535 72.214 80.846 C 71.902 81.158 71.501 81.314 71.014 81.314 L 70.598 81.314 L 70.598 88.953 Z M 60.389 88.953 L 67.583 88.953 L 67.583 81.314 L 67.167 81.314 C 66.678 81.314 66.279 81.158 65.967 80.846 C 65.656 80.535 65.499 80.134 65.499 79.643 L 65.499 65.342 L 62.473 65.342 L 62.473 79.689 C 62.473 80.149 62.313 80.535 61.993 80.847 C 61.674 81.158 61.277 81.314 60.805 81.314 L 60.389 81.314 L 60.389 88.953 Z" style="stroke-width: 0.042px; fill: rgb(67, 141, 230);"/>
</svg>