<?xml version="1.0" encoding="utf-8"?>
<svg height="128px" viewBox="0 0 128 128" width="128px" xmlns="http://www.w3.org/2000/svg">
  <linearGradient id="a" gradientTransform="matrix(0.45451 0 0 0.455522 -1210.292114 616.172607)" gradientUnits="userSpaceOnUse" x1="2689.251953" x2="2918.069824" y1="-1106.802979" y2="-1106.802979">
    <stop offset="0" stop-color="#62a0ea"/>
    <stop offset="0.0577" stop-color="#afd4ff"/>
    <stop offset="0.1222" stop-color="#62a0ea"/>
    <stop offset="0.8733" stop-color="#62a0ea"/>
    <stop offset="0.956" stop-color="#c0d5ea"/>
    <stop offset="1" stop-color="#62a0ea"/>
  </linearGradient>
  <path d="m 21.976562 12 c -5.527343 0 -9.976562 4.460938 -9.976562 10 v 86.03125 c 0 5.542969 4.449219 10 9.976562 10 h 84.042969 c 5.53125 0 9.980469 -4.457031 9.980469 -10 v -72.085938 c 0 -6.628906 -5.359375 -12 -11.972656 -12 h -46.027344 c -2.453125 0 -4.695312 -1.386718 -5.796875 -3.582031 l -1.503906 -2.992187 c -1.65625 -3.292969 -5.019531 -5.371094 -8.699219 -5.371094 z m 0 0" fill="#438de6"/>
  <path d="m 65.976562 36 c -2.746093 0 -5.226562 1.101562 -7.027343 2.890625 c -2.273438 2.253906 -5.382813 5.109375 -8.632813 5.109375 h -28.339844 c -5.527343 0 -9.976562 4.460938 -9.976562 10 v 54.03125 c 0 5.542969 4.449219 10 9.976562 10 h 84.042969 c 5.53125 0 9.980469 -4.457031 9.980469 -10 v -62.03125 c 0 -5.539062 -4.449219 -10 -9.980469 -10 z m 0 0" fill="url(#a)"/>
  <path d="m 65.976562 32 c -2.746093 0 -5.226562 1.101562 -7.027343 2.890625 c -2.273438 2.253906 -5.382813 5.109375 -8.632813 5.109375 h -28.339844 c -5.527343 0 -9.976562 4.460938 -9.976562 10 v 55.976562 c 0 5.539063 4.449219 10 9.976562 10 h 84.042969 c 5.53125 0 9.980469 -4.460937 9.980469 -10 v -63.976562 c 0 -5.539062 -4.449219 -10 -9.980469 -10 z m 0 0" fill="#a4caee"/>
  <path d="M 50.902 93.619 C 49.704 93.619 48.676 93.192 47.822 92.339 C 46.969 91.484 46.542 90.458 46.542 89.259 L 46.542 60.647 L 49.583 63.535 L 52.458 60.647 L 55.355 63.536 L 58.255 60.647 L 61.152 63.536 L 64.008 60.647 L 66.865 63.536 L 69.764 60.647 L 72.652 63.536 L 75.542 60.647 L 78.43 63.536 L 81.458 60.647 L 81.458 89.259 C 81.458 90.458 81.031 91.484 80.178 92.339 C 79.324 93.192 78.296 93.619 77.096 93.619 L 50.902 93.619 Z M 50.902 89.259 L 62.096 89.259 L 62.096 78.147 L 50.902 78.147 L 50.902 89.259 Z M 65.902 89.259 L 77.096 89.259 L 77.096 85.647 L 65.902 85.647 L 65.902 89.259 Z M 65.902 81.8 L 77.096 81.8 L 77.096 78.147 L 65.902 78.147 L 65.902 81.8 Z M 50.902 74.314 L 77.096 74.314 L 77.096 70.369 L 50.902 70.369 L 50.902 74.314 Z" style="stroke-width: 0.042px; fill: rgb(67, 141, 230);"/>
</svg>