<?xml version="1.0" encoding="utf-8"?>
<svg height="128px" viewBox="0 0 128 128" width="128px" xmlns="http://www.w3.org/2000/svg">
  <linearGradient id="a" gradientTransform="matrix(0.45451 0 0 0.455522 -1210.292114 616.172607)" gradientUnits="userSpaceOnUse" x1="2689.251953" x2="2918.069824" y1="-1106.802979" y2="-1106.802979">
    <stop offset="0" stop-color="#62a0ea"/>
    <stop offset="0.0577" stop-color="#afd4ff"/>
    <stop offset="0.1222" stop-color="#62a0ea"/>
    <stop offset="0.8733" stop-color="#62a0ea"/>
    <stop offset="0.956" stop-color="#c0d5ea"/>
    <stop offset="1" stop-color="#62a0ea"/>
  </linearGradient>
  <path d="m 21.976562 12 c -5.527343 0 -9.976562 4.460938 -9.976562 10 v 86.03125 c 0 5.542969 4.449219 10 9.976562 10 h 84.042969 c 5.53125 0 9.980469 -4.457031 9.980469 -10 v -72.085938 c 0 -6.628906 -5.359375 -12 -11.972656 -12 h -46.027344 c -2.453125 0 -4.695312 -1.386718 -5.796875 -3.582031 l -1.503906 -2.992187 c -1.65625 -3.292969 -5.019531 -5.371094 -8.699219 -5.371094 z m 0 0" fill="#438de6"/>
  <path d="m 65.976562 36 c -2.746093 0 -5.226562 1.101562 -7.027343 2.890625 c -2.273438 2.253906 -5.382813 5.109375 -8.632813 5.109375 h -28.339844 c -5.527343 0 -9.976562 4.460938 -9.976562 10 v 54.03125 c 0 5.542969 4.449219 10 9.976562 10 h 84.042969 c 5.53125 0 9.980469 -4.457031 9.980469 -10 v -62.03125 c 0 -5.539062 -4.449219 -10 -9.980469 -10 z m 0 0" fill="url(#a)"/>
  <path d="m 65.976562 32 c -2.746093 0 -5.226562 1.101562 -7.027343 2.890625 c -2.273438 2.253906 -5.382813 5.109375 -8.632813 5.109375 h -28.339844 c -5.527343 0 -9.976562 4.460938 -9.976562 10 v 55.976562 c 0 5.539063 4.449219 10 9.976562 10 h 84.042969 c 5.53125 0 9.980469 -4.460937 9.980469 -10 v -63.976562 c 0 -5.539062 -4.449219 -10 -9.980469 -10 z m 0 0" fill="#a4caee"/>
  <path d="M 53.819 94.894 C 52.619 94.894 51.583 94.458 50.712 93.586 C 49.839 92.713 49.403 91.677 49.403 90.478 L 49.403 73.686 C 49.403 72.44 49.839 71.388 50.712 70.529 C 51.583 69.671 52.619 69.241 53.819 69.241 L 55.347 69.241 L 55.347 66.477 C 55.347 64.034 56.188 61.96 57.868 60.256 C 59.548 58.552 61.584 57.699 63.979 57.699 C 66.373 57.699 68.413 58.552 70.097 60.256 C 71.782 61.96 72.625 64.034 72.625 66.477 L 72.625 69.241 L 74.153 69.241 C 75.36 69.241 76.403 69.671 77.28 70.529 C 78.159 71.388 78.597 72.44 78.597 73.686 L 78.597 90.478 C 78.597 91.677 78.159 92.713 77.28 93.586 C 76.403 94.458 75.36 94.894 74.153 94.894 L 53.819 94.894 Z M 53.819 90.478 L 74.153 90.478 L 74.153 73.686 L 53.819 73.686 L 53.819 90.478 Z M 66.313 84.43 C 66.938 83.797 67.25 83.036 67.25 82.147 C 67.25 81.275 66.934 80.501 66.304 79.825 C 65.673 79.149 64.897 78.811 63.977 78.811 C 63.058 78.811 62.285 79.148 61.66 79.823 C 61.035 80.498 60.722 81.273 60.722 82.149 C 60.722 83.035 61.038 83.796 61.669 84.43 C 62.299 85.064 63.076 85.381 63.996 85.381 C 64.915 85.381 65.688 85.064 66.313 84.43 Z M 59.764 69.241 L 68.208 69.241 L 68.208 66.484 C 68.208 65.236 67.803 64.2 66.992 63.378 C 66.18 62.555 65.18 62.144 63.992 62.144 C 62.803 62.144 61.801 62.555 60.986 63.378 C 60.172 64.2 59.764 65.236 59.764 66.484 L 59.764 69.241 Z M 53.819 90.478 L 53.819 73.686 L 53.819 90.478 Z" style="stroke-width: 0.042px; fill: rgb(67, 141, 230);"/>
</svg>