<?xml version="1.0" encoding="utf-8"?>
<svg height="128px" viewBox="0 0 128 128" width="128px" xmlns="http://www.w3.org/2000/svg">
  <linearGradient id="a" gradientTransform="matrix(0.45451 0 0 0.455522 -1210.292114 616.172607)" gradientUnits="userSpaceOnUse" x1="2689.251953" x2="2918.069824" y1="-1106.802979" y2="-1106.802979">
    <stop offset="0" stop-color="#62a0ea"/>
    <stop offset="0.0577" stop-color="#afd4ff"/>
    <stop offset="0.1222" stop-color="#62a0ea"/>
    <stop offset="0.8733" stop-color="#62a0ea"/>
    <stop offset="0.956" stop-color="#c0d5ea"/>
    <stop offset="1" stop-color="#62a0ea"/>
  </linearGradient>
  <path d="m 21.976562 12 c -5.527343 0 -9.976562 4.460938 -9.976562 10 v 86.03125 c 0 5.542969 4.449219 10 9.976562 10 h 84.042969 c 5.53125 0 9.980469 -4.457031 9.980469 -10 v -72.085938 c 0 -6.628906 -5.359375 -12 -11.972656 -12 h -46.027344 c -2.453125 0 -4.695312 -1.386718 -5.796875 -3.582031 l -1.503906 -2.992187 c -1.65625 -3.292969 -5.019531 -5.371094 -8.699219 -5.371094 z m 0 0" fill="#438de6"/>
  <path d="m 65.976562 36 c -2.746093 0 -5.226562 1.101562 -7.027343 2.890625 c -2.273438 2.253906 -5.382813 5.109375 -8.632813 5.109375 h -28.339844 c -5.527343 0 -9.976562 4.460938 -9.976562 10 v 54.03125 c 0 5.542969 4.449219 10 9.976562 10 h 84.042969 c 5.53125 0 9.980469 -4.457031 9.980469 -10 v -62.03125 c 0 -5.539062 -4.449219 -10 -9.980469 -10 z m 0 0" fill="url(#a)"/>
  <path d="m 65.976562 32 c -2.746093 0 -5.226562 1.101562 -7.027343 2.890625 c -2.273438 2.253906 -5.382813 5.109375 -8.632813 5.109375 h -28.339844 c -5.527343 0 -9.976562 4.460938 -9.976562 10 v 55.976562 c 0 5.539063 4.449219 10 9.976562 10 h 84.042969 c 5.53125 0 9.980469 -4.460937 9.980469 -10 v -63.976562 c 0 -5.539062 -4.449219 -10 -9.980469 -10 z m 0 0" fill="#a4caee"/>
  <path d="M 52.18 94.645 C 50.942 94.645 49.896 94.208 49.044 93.336 C 48.191 92.463 47.763 91.427 47.763 90.228 L 47.763 66.589 C 47.763 65.382 48.191 64.339 49.044 63.461 C 49.896 62.583 50.942 62.144 52.18 62.144 L 58.972 62.144 C 59.399 61.163 60.051 60.36 60.93 59.735 C 61.81 59.11 62.829 58.797 63.986 58.797 C 65.143 58.797 66.162 59.11 67.042 59.735 C 67.921 60.36 68.573 61.163 69 62.144 L 75.792 62.144 C 77.037 62.144 78.089 62.583 78.948 63.461 C 79.807 64.339 80.237 65.382 80.237 66.589 L 80.237 90.228 C 80.237 91.427 79.807 92.463 78.948 93.336 C 78.089 94.208 77.037 94.645 75.792 94.645 L 52.18 94.645 Z M 52.18 90.228 L 75.792 90.228 L 75.792 66.589 L 52.18 66.589 L 52.18 90.228 Z M 56.041 86.381 L 67.042 86.381 L 67.042 83.547 L 56.041 83.547 L 56.041 86.381 Z M 56.041 79.825 L 71.931 79.825 L 71.931 76.992 L 56.041 76.992 L 56.041 79.825 Z M 56.041 73.284 L 71.931 73.284 L 71.931 70.45 L 56.041 70.45 L 56.041 73.284 Z M 65.166 65.075 C 65.49 64.751 65.653 64.357 65.653 63.894 C 65.653 63.432 65.49 63.038 65.166 62.714 C 64.843 62.39 64.449 62.228 63.986 62.228 C 63.523 62.228 63.129 62.39 62.805 62.714 C 62.482 63.038 62.319 63.432 62.319 63.894 C 62.319 64.357 62.482 64.751 62.805 65.075 C 63.129 65.399 63.523 65.561 63.986 65.561 C 64.449 65.561 64.843 65.399 65.166 65.075 Z M 52.18 90.228 L 52.18 66.589 L 52.18 90.228 Z" style="stroke-width: 0.042px; fill: rgb(67, 141, 230);"/>
</svg>