<?xml version="1.0" encoding="utf-8"?>
<svg height="128px" viewBox="0 0 128 128" width="128px" xmlns="http://www.w3.org/2000/svg">
  <linearGradient id="a" gradientTransform="matrix(0.45451 0 0 0.455522 -1210.292114 616.172607)" gradientUnits="userSpaceOnUse" x1="2689.251953" x2="2918.069824" y1="-1106.802979" y2="-1106.802979">
    <stop offset="0" stop-color="#62a0ea"/>
    <stop offset="0.0577" stop-color="#afd4ff"/>
    <stop offset="0.1222" stop-color="#62a0ea"/>
    <stop offset="0.8733" stop-color="#62a0ea"/>
    <stop offset="0.956" stop-color="#c0d5ea"/>
    <stop offset="1" stop-color="#62a0ea"/>
  </linearGradient>
  <path d="m 21.976562 12 c -5.527343 0 -9.976562 4.460938 -9.976562 10 v 86.03125 c 0 5.542969 4.449219 10 9.976562 10 h 84.042969 c 5.53125 0 9.980469 -4.457031 9.980469 -10 v -72.085938 c 0 -6.628906 -5.359375 -12 -11.972656 -12 h -46.027344 c -2.453125 0 -4.695312 -1.386718 -5.796875 -3.582031 l -1.503906 -2.992187 c -1.65625 -3.292969 -5.019531 -5.371094 -8.699219 -5.371094 z m 0 0" fill="#438de6"/>
  <path d="m 65.976562 36 c -2.746093 0 -5.226562 1.101562 -7.027343 2.890625 c -2.273438 2.253906 -5.382813 5.109375 -8.632813 5.109375 h -28.339844 c -5.527343 0 -9.976562 4.460938 -9.976562 10 v 54.03125 c 0 5.542969 4.449219 10 9.976562 10 h 84.042969 c 5.53125 0 9.980469 -4.457031 9.980469 -10 v -62.03125 c 0 -5.539062 -4.449219 -10 -9.980469 -10 z m 0 0" fill="url(#a)"/>
  <path d="m 65.976562 32 c -2.746093 0 -5.226562 1.101562 -7.027343 2.890625 c -2.273438 2.253906 -5.382813 5.109375 -8.632813 5.109375 h -28.339844 c -5.527343 0 -9.976562 4.460938 -9.976562 10 v 55.976562 c 0 5.539063 4.449219 10 9.976562 10 h 84.042969 c 5.53125 0 9.980469 -4.460937 9.980469 -10 v -63.976562 c 0 -5.539062 -4.449219 -10 -9.980469 -10 z m 0 0" fill="#a4caee"/>
  <path d="M 63.991 96.01 C 59.76 94.959 56.272 92.548 53.524 88.776 C 50.777 85.004 49.403 80.88 49.403 76.402 L 49.403 65.572 L 63.986 60.12 L 78.597 65.573 L 78.597 76.375 C 78.597 80.87 77.22 85.004 74.467 88.776 C 71.713 92.548 68.22 94.959 63.991 96.01 Z M 63.977 91.482 C 66.669 90.426 68.938 88.697 70.784 86.293 C 72.631 83.889 73.717 81.145 74.041 78.06 L 63.986 78.06 L 63.986 64.856 L 53.82 68.642 L 53.82 76.412 C 53.82 76.722 53.83 77.002 53.854 77.252 C 53.878 77.503 53.903 77.773 53.928 78.065 L 63.977 78.065 L 63.977 91.482 Z" style="stroke-width: 0.042px; fill: rgb(67, 141, 230);"/>
</svg>