<?xml version="1.0" encoding="utf-8"?>
<svg height="128px" viewBox="0 0 128 128" width="128px" xmlns="http://www.w3.org/2000/svg">
  <linearGradient id="a" gradientTransform="matrix(0.45451 0 0 0.455522 -1210.292114 616.172607)" gradientUnits="userSpaceOnUse" x1="2689.251953" x2="2918.069824" y1="-1106.802979" y2="-1106.802979">
    <stop offset="0" stop-color="#62a0ea"/>
    <stop offset="0.0577" stop-color="#afd4ff"/>
    <stop offset="0.1222" stop-color="#62a0ea"/>
    <stop offset="0.8733" stop-color="#62a0ea"/>
    <stop offset="0.956" stop-color="#c0d5ea"/>
    <stop offset="1" stop-color="#62a0ea"/>
  </linearGradient>
  <path d="m 21.976562 12 c -5.527343 0 -9.976562 4.460938 -9.976562 10 v 86.03125 c 0 5.542969 4.449219 10 9.976562 10 h 84.042969 c 5.53125 0 9.980469 -4.457031 9.980469 -10 v -72.085938 c 0 -6.628906 -5.359375 -12 -11.972656 -12 h -46.027344 c -2.453125 0 -4.695312 -1.386718 -5.796875 -3.582031 l -1.503906 -2.992187 c -1.65625 -3.292969 -5.019531 -5.371094 -8.699219 -5.371094 z m 0 0" fill="#438de6"/>
  <path d="m 65.976562 36 c -2.746093 0 -5.226562 1.101562 -7.027343 2.890625 c -2.273438 2.253906 -5.382813 5.109375 -8.632813 5.109375 h -28.339844 c -5.527343 0 -9.976562 4.460938 -9.976562 10 v 54.03125 c 0 5.542969 4.449219 10 9.976562 10 h 84.042969 c 5.53125 0 9.980469 -4.457031 9.980469 -10 v -62.03125 c 0 -5.539062 -4.449219 -10 -9.980469 -10 z m 0 0" fill="url(#a)"/>
  <path d="m 65.976562 32 c -2.746093 0 -5.226562 1.101562 -7.027343 2.890625 c -2.273438 2.253906 -5.382813 5.109375 -8.632813 5.109375 h -28.339844 c -5.527343 0 -9.976562 4.460938 -9.976562 10 v 55.976562 c 0 5.539063 4.449219 10 9.976562 10 h 84.042969 c 5.53125 0 9.980469 -4.460937 9.980469 -10 v -63.976562 c 0 -5.539062 -4.449219 -10 -9.980469 -10 z m 0 0" fill="#a4caee"/>
  <path d="M 49.93 91.356 C 48.533 89.958 47.833 88.263 47.833 86.272 C 47.833 84.281 48.533 82.587 49.93 81.189 C 51.329 79.791 53.023 79.092 55.014 79.092 C 55.587 79.092 56.104 79.154 56.563 79.279 C 57.021 79.404 57.445 79.582 57.833 79.814 L 57.833 64.147 L 80.167 60.814 L 80.167 82.939 C 80.167 84.93 79.462 86.624 78.055 88.022 C 76.648 89.42 74.949 90.119 72.958 90.119 C 70.967 90.119 69.273 89.42 67.874 88.022 C 66.477 86.624 65.777 84.93 65.777 82.939 C 65.777 80.948 66.477 79.254 67.874 77.856 C 69.273 76.457 70.967 75.758 72.958 75.758 C 73.533 75.758 74.053 75.821 74.521 75.946 C 74.988 76.071 75.408 76.249 75.777 76.481 L 75.777 69.675 L 62.193 71.522 L 62.193 86.272 C 62.193 88.263 61.495 89.958 60.096 91.356 C 58.699 92.754 57.005 93.453 55.014 93.453 C 53.023 93.453 51.329 92.754 49.93 91.356 Z" style="stroke-width: 0.042px; fill: rgb(67, 141, 230);"/>
</svg>