<?xml version="1.0" encoding="utf-8"?>
<svg height="128px" viewBox="0 0 128 128" width="128px" xmlns="http://www.w3.org/2000/svg">
  <linearGradient id="a" gradientTransform="matrix(0.45451 0 0 0.455522 -1210.292114 616.172607)" gradientUnits="userSpaceOnUse" x1="2689.251953" x2="2918.069824" y1="-1106.802979" y2="-1106.802979">
    <stop offset="0" stop-color="#62a0ea"/>
    <stop offset="0.0577" stop-color="#afd4ff"/>
    <stop offset="0.1222" stop-color="#62a0ea"/>
    <stop offset="0.8733" stop-color="#62a0ea"/>
    <stop offset="0.956" stop-color="#c0d5ea"/>
    <stop offset="1" stop-color="#62a0ea"/>
  </linearGradient>
  <path d="m 21.976562 12 c -5.527343 0 -9.976562 4.460938 -9.976562 10 v 86.03125 c 0 5.542969 4.449219 10 9.976562 10 h 84.042969 c 5.53125 0 9.980469 -4.457031 9.980469 -10 v -72.085938 c 0 -6.628906 -5.359375 -12 -11.972656 -12 h -46.027344 c -2.453125 0 -4.695312 -1.386718 -5.796875 -3.582031 l -1.503906 -2.992187 c -1.65625 -3.292969 -5.019531 -5.371094 -8.699219 -5.371094 z m 0 0" fill="#438de6"/>
  <path d="m 65.976562 36 c -2.746093 0 -5.226562 1.101562 -7.027343 2.890625 c -2.273438 2.253906 -5.382813 5.109375 -8.632813 5.109375 h -28.339844 c -5.527343 0 -9.976562 4.460938 -9.976562 10 v 54.03125 c 0 5.542969 4.449219 10 9.976562 10 h 84.042969 c 5.53125 0 9.980469 -4.457031 9.980469 -10 v -62.03125 c 0 -5.539062 -4.449219 -10 -9.980469 -10 z m 0 0" fill="url(#a)"/>
  <path d="m 65.976562 32 c -2.746093 0 -5.226562 1.101562 -7.027343 2.890625 c -2.273438 2.253906 -5.382813 5.109375 -8.632813 5.109375 h -28.339844 c -5.527343 0 -9.976562 4.460938 -9.976562 10 v 55.976562 c 0 5.539063 4.449219 10 9.976562 10 h 84.042969 c 5.53125 0 9.980469 -4.460937 9.980469 -10 v -63.976562 c 0 -5.539062 -4.449219 -10 -9.980469 -10 z m 0 0" fill="#a4caee"/>
  <path d="M 69.91 89.96 C 68.368 89.96 67.056 89.425 65.973 88.357 C 64.889 87.288 64.348 85.978 64.348 84.426 C 64.348 82.874 64.88 81.564 65.943 80.494 C 67.008 79.425 68.3 78.89 69.82 78.89 C 70.051 78.89 70.271 78.907 70.481 78.942 C 70.691 78.977 70.901 79.038 71.111 79.126 L 71.111 64.307 L 81.014 64.307 L 81.014 68.96 L 75.459 68.96 L 75.459 84.432 C 75.459 85.987 74.919 87.298 73.84 88.363 C 72.761 89.427 71.451 89.96 69.91 89.96 Z M 46.986 85.654 L 46.986 81.335 L 60.583 81.335 L 60.583 85.654 L 46.986 85.654 Z M 46.986 77.168 L 46.986 72.821 L 67.083 72.821 L 67.083 77.168 L 46.986 77.168 Z M 46.986 68.654 L 46.986 64.307 L 67.083 64.307 L 67.083 68.654 L 46.986 68.654 Z" style="stroke-width: 0.042px; fill: rgb(67, 141, 230);"/>
</svg>