<?xml version="1.0" encoding="utf-8"?>
<svg height="128px" viewBox="0 0 128 128" width="128px" xmlns="http://www.w3.org/2000/svg">
  <linearGradient id="a" gradientTransform="matrix(0.45451 0 0 0.455522 -1210.292114 616.172607)" gradientUnits="userSpaceOnUse" x1="2689.251953" x2="2918.069824" y1="-1106.802979" y2="-1106.802979">
    <stop offset="0" stop-color="#62a0ea"/>
    <stop offset="0.0577" stop-color="#afd4ff"/>
    <stop offset="0.1222" stop-color="#62a0ea"/>
    <stop offset="0.8733" stop-color="#62a0ea"/>
    <stop offset="0.956" stop-color="#c0d5ea"/>
    <stop offset="1" stop-color="#62a0ea"/>
  </linearGradient>
  <path d="m 21.976562 12 c -5.527343 0 -9.976562 4.460938 -9.976562 10 v 86.03125 c 0 5.542969 4.449219 10 9.976562 10 h 84.042969 c 5.53125 0 9.980469 -4.457031 9.980469 -10 v -72.085938 c 0 -6.628906 -5.359375 -12 -11.972656 -12 h -46.027344 c -2.453125 0 -4.695312 -1.386718 -5.796875 -3.582031 l -1.503906 -2.992187 c -1.65625 -3.292969 -5.019531 -5.371094 -8.699219 -5.371094 z m 0 0" fill="#438de6"/>
  <path d="m 65.976562 36 c -2.746093 0 -5.226562 1.101562 -7.027343 2.890625 c -2.273438 2.253906 -5.382813 5.109375 -8.632813 5.109375 h -28.339844 c -5.527343 0 -9.976562 4.460938 -9.976562 10 v 54.03125 c 0 5.542969 4.449219 10 9.976562 10 h 84.042969 c 5.53125 0 9.980469 -4.457031 9.980469 -10 v -62.03125 c 0 -5.539062 -4.449219 -10 -9.980469 -10 z m 0 0" fill="url(#a)"/>
  <path d="m 65.976562 32 c -2.746093 0 -5.226562 1.101562 -7.027343 2.890625 c -2.273438 2.253906 -5.382813 5.109375 -8.632813 5.109375 h -28.339844 c -5.527343 0 -9.976562 4.460938 -9.976562 10 v 55.976562 c 0 5.539063 4.449219 10 9.976562 10 h 84.042969 c 5.53125 0 9.980469 -4.460937 9.980469 -10 v -63.976562 c 0 -5.539062 -4.449219 -10 -9.980469 -10 z m 0 0" fill="#a4caee"/>
  <path d="M 76.452 97.036 C 76.188 96.93 75.949 96.77 75.737 96.557 L 65.487 86.307 C 65.274 86.094 65.114 85.856 65.007 85.592 C 64.901 85.328 64.847 85.057 64.847 84.779 C 64.847 84.501 64.901 84.224 65.007 83.946 C 65.114 83.668 65.274 83.423 65.487 83.21 L 69.112 79.571 C 69.324 79.358 69.565 79.191 69.834 79.071 C 70.102 78.95 70.38 78.89 70.667 78.89 C 70.954 78.89 71.232 78.95 71.5 79.071 C 71.769 79.191 72.01 79.358 72.222 79.571 L 82.473 89.862 C 82.686 90.075 82.85 90.309 82.966 90.564 C 83.081 90.818 83.139 91.089 83.139 91.376 C 83.139 91.663 83.075 91.946 82.945 92.223 C 82.815 92.501 82.653 92.737 82.459 92.932 L 78.834 96.557 C 78.621 96.77 78.38 96.929 78.112 97.036 C 77.843 97.143 77.565 97.196 77.278 97.196 C 76.991 97.196 76.716 97.143 76.452 97.036 Z M 77.306 92.71 L 78.625 91.39 L 70.653 83.39 L 69.334 84.71 L 77.306 92.71 Z M 50.084 97.022 C 49.806 96.925 49.56 96.77 49.347 96.557 L 45.75 92.973 C 45.537 92.779 45.382 92.55 45.285 92.286 C 45.188 92.022 45.139 91.747 45.139 91.46 C 45.139 91.173 45.188 90.89 45.285 90.613 C 45.382 90.335 45.537 90.089 45.75 89.876 L 56 79.654 L 59.972 79.654 L 61.362 78.265 L 53.653 70.557 L 51 70.557 L 44.861 64.431 L 50.25 59.056 L 56.375 65.181 L 56.375 67.834 L 64.084 75.543 L 69.445 70.182 L 66.764 67.487 L 69.084 65.196 L 64.389 65.196 L 63.07 63.848 L 69.806 57.071 L 71.167 58.459 L 71.167 63.126 L 73.487 60.793 L 81.125 68.473 C 81.625 68.992 82.028 69.58 82.334 70.237 C 82.639 70.895 82.792 71.589 82.792 72.321 C 82.792 73.098 82.63 73.844 82.306 74.557 C 81.982 75.27 81.565 75.908 81.056 76.473 L 77.084 72.501 L 74.472 75.126 L 72.222 72.862 L 62.695 82.39 L 62.695 86.348 L 52.445 96.557 C 52.232 96.77 51.998 96.925 51.743 97.022 C 51.489 97.119 51.218 97.168 50.931 97.168 C 50.644 97.168 50.361 97.119 50.084 97.022 Z M 50.917 92.723 L 59.292 84.376 L 59.292 83.057 L 57.972 83.057 L 49.597 91.404 L 50.917 92.723 Z M 50.917 92.723 L 49.597 91.404 L 50.278 92.043 L 50.917 92.723 Z M 77.306 92.71 L 78.625 91.39 L 77.306 92.71 Z" style="stroke-width: 0.042px; fill: rgb(67, 141, 230);"/>
</svg>