<?xml version="1.0" encoding="utf-8"?>
<svg height="128px" viewBox="0 0 128 128" width="128px" xmlns="http://www.w3.org/2000/svg">
  <linearGradient id="a" gradientTransform="matrix(0.45451 0 0 0.455522 -1210.292114 616.172607)" gradientUnits="userSpaceOnUse" x1="2689.251953" x2="2918.069824" y1="-1106.802979" y2="-1106.802979">
    <stop offset="0" stop-color="#62a0ea"/>
    <stop offset="0.0577" stop-color="#afd4ff"/>
    <stop offset="0.1222" stop-color="#62a0ea"/>
    <stop offset="0.8733" stop-color="#62a0ea"/>
    <stop offset="0.956" stop-color="#c0d5ea"/>
    <stop offset="1" stop-color="#62a0ea"/>
  </linearGradient>
  <path d="m 21.976562 12 c -5.527343 0 -9.976562 4.460938 -9.976562 10 v 86.03125 c 0 5.542969 4.449219 10 9.976562 10 h 84.042969 c 5.53125 0 9.980469 -4.457031 9.980469 -10 v -72.085938 c 0 -6.628906 -5.359375 -12 -11.972656 -12 h -46.027344 c -2.453125 0 -4.695312 -1.386718 -5.796875 -3.582031 l -1.503906 -2.992187 c -1.65625 -3.292969 -5.019531 -5.371094 -8.699219 -5.371094 z m 0 0" fill="#438de6"/>
  <path d="m 65.976562 36 c -2.746093 0 -5.226562 1.101562 -7.027343 2.890625 c -2.273438 2.253906 -5.382813 5.109375 -8.632813 5.109375 h -28.339844 c -5.527343 0 -9.976562 4.460938 -9.976562 10 v 54.03125 c 0 5.542969 4.449219 10 9.976562 10 h 84.042969 c 5.53125 0 9.980469 -4.457031 9.980469 -10 v -62.03125 c 0 -5.539062 -4.449219 -10 -9.980469 -10 z m 0 0" fill="url(#a)"/>
  <path d="m 65.976562 32 c -2.746093 0 -5.226562 1.101562 -7.027343 2.890625 c -2.273438 2.253906 -5.382813 5.109375 -8.632813 5.109375 h -28.339844 c -5.527343 0 -9.976562 4.460938 -9.976562 10 v 55.976562 c 0 5.539063 4.449219 10 9.976562 10 h 84.042969 c 5.53125 0 9.980469 -4.460937 9.980469 -10 v -63.976562 c 0 -5.539062 -4.449219 -10 -9.980469 -10 z m 0 0" fill="#a4caee"/>
  <path d="M 50.514 94.661 C 49.299 94.661 48.27 94.238 47.423 93.391 C 46.576 92.544 46.152 91.514 46.152 90.3 L 46.152 72.244 C 46.152 71.023 46.576 69.986 47.423 69.134 C 48.27 68.282 49.299 67.855 50.514 67.855 L 56.249 67.855 L 56.249 63.966 C 56.249 62.772 56.674 61.746 57.52 60.89 C 58.367 60.034 59.396 59.605 60.611 59.605 L 67.361 59.605 C 68.575 59.605 69.605 60.034 70.452 60.89 C 71.299 61.746 71.723 62.772 71.723 63.966 L 71.723 67.855 L 77.458 67.855 C 78.68 67.855 79.717 68.282 80.568 69.134 C 81.421 69.986 81.848 71.023 81.848 72.244 L 81.848 90.3 C 81.848 91.514 81.421 92.544 80.568 93.391 C 79.717 94.238 78.68 94.661 77.458 94.661 L 50.514 94.661 Z M 60.611 67.855 L 67.361 67.855 L 67.361 63.966 L 60.611 63.966 L 60.611 67.855 Z M 77.458 82.772 L 68.18 82.772 L 68.18 85.55 L 59.848 85.55 L 59.848 82.772 L 50.514 82.772 L 50.514 90.3 L 77.458 90.3 L 77.458 82.772 Z M 62.624 82.772 L 65.402 82.772 L 65.402 79.994 L 62.624 79.994 L 62.624 82.772 Z M 50.514 79.994 L 59.848 79.994 L 59.848 77.216 L 68.18 77.216 L 68.18 79.994 L 77.458 79.994 L 77.458 72.244 L 50.514 72.244 L 50.514 79.994 Z M 63.986 81.383 Z" style="stroke-width: 0.042px; fill: rgb(67, 141, 230);"/>
</svg>